<?xml version="1.0" encoding="UTF-8"?>
<svg xmlns="http://www.w3.org/2000/svg" xmlns:xlink="http://www.w3.org/1999/xlink" width="364pt" height="106pt" viewBox="0 0 364 106" version="1.2">
<g id="surface1">
<path style=" stroke:none;fill-rule:nonzero;fill:rgb(0%,0%,0%);fill-opacity:1;" d="M 0.71875 68.917969 L 0.558594 68.039063 L 0.238281 67.238281 L 0.160156 66.359375 L 0.078125 65.480469 L 0 64.519531 L 0 63.640625 L 0.078125 62.757813 L 0.160156 61.800781 L 0.320313 60.917969 L 0.480469 59.960938 L 0.800781 59.078125 L 1.121094 58.121094 L 1.441406 57.160156 L 1.839844 56.199219 L 2.320313 55.320313 L 2.800781 54.359375 L 3.359375 53.398438 L 3.839844 52.4375 L 4.480469 51.480469 L 5.761719 49.558594 L 6.558594 48.519531 L 8.160156 46.597656 L 9.039063 45.640625 L 10.960938 43.71875 L 11.921875 42.679688 L 12.878906 41.71875 L 13.921875 40.757813 L 14.960938 39.800781 L 16.078125 38.839844 L 18.398438 36.839844 L 20.878906 34.917969 L 23.601563 33 L 26.320313 31.078125 L 29.199219 29.238281 L 32.160156 27.320313 L 35.199219 25.480469 L 38.480469 23.640625 L 41.839844 21.878906 L 45.199219 20.121094 L 48.71875 18.359375 L 52.398438 16.757813 L 56.078125 15.160156 L 59.921875 13.640625 L 63.839844 12.121094 L 67.761719 10.679688 L 71.761719 9.320313 L 75.679688 8.039063 L 79.601563 6.917969 L 83.519531 5.878906 L 87.359375 4.839844 L 91.199219 3.960938 L 94.960938 3.160156 L 98.640625 2.519531 L 102.320313 1.960938 L 105.839844 1.398438 L 109.359375 1 L 112.800781 0.679688 L 116.078125 0.359375 L 119.359375 0.277344 L 122.558594 0.199219 L 125.601563 0.277344 L 131.359375 0.597656 L 134.078125 0.917969 L 136.640625 1.398438 L 139.121094 1.878906 L 141.441406 2.519531 L 142.558594 2.839844 L 143.601563 3.238281 L 144.640625 3.640625 L 145.601563 4.039063 L 146.640625 4.519531 L 147.519531 5 L 148.480469 5.480469 L 149.359375 5.960938 L 150.960938 7.078125 L 151.761719 7.640625 L 152.398438 8.199219 L 153.039063 8.839844 L 153.601563 9.480469 L 154.160156 10.121094 L 154.640625 10.757813 L 155.601563 12.359375 L 155.921875 13.160156 L 156.320313 13.960938 L 156.480469 14.839844 L 156.800781 15.71875 L 156.878906 16.597656 L 156.960938 17.480469 L 157.039063 18.359375 L 157.039063 19.238281 L 156.960938 20.199219 L 156.878906 21.078125 L 156.71875 22.039063 L 156.558594 22.917969 L 156.398438 23.878906 L 156 24.839844 L 155.679688 25.71875 L 155.28125 26.679688 L 154.800781 27.640625 L 154.320313 28.757813 L 153.761719 29.71875 L 153.28125 30.679688 L 152.640625 31.640625 L 152 32.597656 L 151.359375 33.558594 L 150.558594 34.519531 L 149.761719 35.480469 L 148.960938 36.4375 L 148.078125 37.480469 L 147.121094 38.4375 L 146.238281 39.398438 L 145.199219 40.359375 L 143.199219 42.359375 L 142.160156 43.320313 L 141.039063 44.277344 L 138.640625 46.199219 L 136.238281 48.121094 L 133.519531 50.039063 L 130.800781 51.960938 L 127.921875 53.878906 L 124.960938 55.71875 L 121.761719 57.558594 L 118.558594 59.398438 L 115.199219 61.238281 L 111.839844 63 L 108.320313 64.597656 L 104.640625 66.359375 L 100.878906 67.878906 L 97.121094 69.398438 L 93.199219 70.917969 L 89.28125 72.359375 L 85.28125 73.71875 L 81.359375 75 L 77.441406 76.277344 L 73.519531 77.320313 L 69.679688 78.277344 L 65.839844 79.160156 L 62.078125 79.960938 L 58.398438 80.757813 L 54.71875 81.320313 L 51.199219 81.800781 L 47.679688 82.277344 L 44.238281 82.597656 L 40.960938 82.757813 L 37.679688 82.917969 L 34.480469 82.917969 L 31.441406 82.839844 L 28.558594 82.757813 L 25.679688 82.597656 L 22.960938 82.199219 L 20.398438 81.800781 L 17.921875 81.238281 L 15.601563 80.679688 L 14.480469 80.277344 L 13.441406 79.878906 L 12.398438 79.480469 L 11.441406 79.078125 L 10.398438 78.679688 L 9.519531 78.199219 L 8.558594 77.71875 L 7.679688 77.160156 L 6.878906 76.679688 L 6.078125 76.121094 L 5.28125 75.558594 L 4.640625 74.917969 L 4 74.359375 L 3.441406 73.71875 L 2.878906 73.078125 L 2.398438 72.277344 L 1.921875 71.640625 L 1.441406 70.839844 L 1.121094 69.960938 Z M 2.558594 69.078125 L 2.878906 69.878906 L 3.28125 70.519531 L 3.679688 71.160156 L 4.160156 71.71875 L 4.640625 72.359375 L 5.761719 73.480469 L 6.398438 74.039063 L 7.039063 74.519531 L 7.679688 75.078125 L 9.28125 76.039063 L 10.160156 76.519531 L 11.039063 76.917969 L 12 77.398438 L 12.960938 77.800781 L 13.921875 78.199219 L 14.960938 78.519531 L 16 78.917969 L 18.320313 79.480469 L 20.71875 79.960938 L 23.199219 80.4375 L 25.921875 80.757813 L 28.71875 80.917969 L 31.601563 81.078125 L 37.601563 81.078125 L 40.878906 81 L 44.160156 80.679688 L 47.519531 80.359375 L 50.960938 79.960938 L 54.480469 79.398438 L 58.160156 78.839844 L 61.839844 78.199219 L 65.601563 77.398438 L 69.359375 76.519531 L 73.199219 75.558594 L 77.039063 74.519531 L 80.960938 73.398438 L 84.878906 72.121094 L 88.800781 70.679688 L 92.71875 69.238281 L 96.558594 67.800781 L 100.398438 66.277344 L 104.078125 64.679688 L 107.761719 63.078125 L 111.199219 61.480469 L 114.558594 59.71875 L 117.921875 57.960938 L 121.121094 56.121094 L 124.160156 54.277344 L 127.121094 52.4375 L 129.921875 50.597656 L 132.71875 48.679688 L 135.199219 46.757813 L 137.679688 44.839844 L 140 42.917969 L 141.039063 41.960938 L 142.078125 41 L 143.121094 40.039063 L 144.160156 39.078125 L 145.039063 38.121094 L 146 37.160156 L 146.878906 36.277344 L 147.761719 35.320313 L 148.558594 34.359375 L 149.359375 33.398438 L 150 32.4375 L 150.640625 31.558594 L 151.28125 30.597656 L 151.839844 29.640625 L 152.398438 28.757813 L 152.878906 27.800781 L 153.359375 26.917969 L 153.761719 26.039063 L 154.160156 25.078125 L 154.558594 24.199219 L 154.71875 23.320313 L 155.039063 22.519531 L 155.199219 21.640625 L 155.28125 20.757813 L 155.441406 19.960938 L 155.441406 17.480469 L 155.359375 16.679688 L 155.199219 15.878906 L 155.121094 15.078125 L 154.800781 14.4375 L 154.480469 13.640625 L 154.160156 13 L 153.761719 12.359375 L 153.359375 11.71875 L 152.878906 11.078125 L 152.398438 10.519531 L 151.839844 9.960938 L 151.28125 9.398438 L 150.640625 8.839844 L 150 8.277344 L 149.359375 7.800781 L 148.558594 7.238281 L 147.761719 6.757813 L 146.878906 6.359375 L 146 5.878906 L 145.039063 5.480469 L 144.078125 5.078125 L 143.121094 4.679688 L 142.078125 4.277344 L 141.039063 3.960938 L 138.71875 3.398438 L 136.320313 2.839844 L 133.839844 2.4375 L 131.121094 2.121094 L 128.320313 1.800781 L 125.441406 1.71875 L 122.480469 1.640625 L 119.441406 1.640625 L 112.878906 1.960938 L 109.519531 2.277344 L 106.078125 2.757813 L 102.558594 3.238281 L 98.878906 3.800781 L 95.199219 4.4375 L 91.441406 5.320313 L 87.679688 6.199219 L 83.839844 7.160156 L 80 8.199219 L 76.078125 9.320313 L 72.160156 10.597656 L 68.160156 11.960938 L 64.320313 13.398438 L 60.398438 14.839844 L 56.640625 16.359375 L 52.960938 17.960938 L 49.28125 19.558594 L 45.839844 21.160156 L 42.398438 22.917969 L 39.121094 24.757813 L 35.921875 26.519531 L 32.878906 28.359375 L 29.921875 30.199219 L 27.121094 32.121094 L 24.320313 33.960938 L 21.839844 35.878906 L 19.359375 37.800781 L 17.039063 39.71875 L 16 40.679688 L 14.878906 41.640625 L 13.921875 42.597656 L 12.878906 43.558594 L 12 44.519531 L 11.039063 45.480469 L 10.160156 46.4375 L 9.28125 47.398438 L 7.679688 49.320313 L 7.039063 50.199219 L 6.398438 51.160156 L 5.761719 52.121094 L 5.199219 53 L 4.71875 54.359375 L 4.238281 55.238281 L 3.761719 56.199219 L 3.359375 57.078125 L 2.960938 57.960938 L 2.558594 58.839844 L 2.398438 59.71875 L 2.078125 60.597656 L 1.921875 61.480469 L 1.839844 62.277344 L 1.761719 63.160156 L 1.679688 63.960938 L 1.679688 65.640625 L 1.761719 66.4375 L 1.921875 67.238281 L 2 67.878906 L 2.320313 68.679688 Z M 2.558594 69.078125 "/>
<path style=" stroke:none;fill-rule:nonzero;fill:rgb(0%,0%,0%);fill-opacity:1;" d="M 59.679688 53.800781 C 59.839844 54.359375 60 54.839844 59.839844 55.398438 C 59.839844 55.878906 59.679688 56.359375 59.359375 56.757813 C 59.039063 57.160156 58.71875 57.558594 58.320313 57.878906 C 57.839844 58.199219 57.28125 58.4375 56.71875 58.679688 C 56.320313 58.839844 55.921875 59 55.601563 59 C 55.28125 59.078125 54.960938 59.078125 54.640625 59.078125 L 53.839844 59.078125 C 53.519531 59 53.441406 59 53.28125 59 L 52.960938 58.679688 C 52.878906 58.519531 52.800781 58.359375 52.800781 58.121094 C 52.71875 57.960938 52.71875 57.800781 52.640625 57.71875 L 52.640625 57.398438 C 52.640625 57.238281 52.640625 57.320313 52.71875 57.238281 L 52.800781 57.160156 C 52.878906 57.160156 52.960938 57.160156 53.28125 57.238281 C 53.441406 57.238281 53.679688 57.320313 53.921875 57.320313 C 54.238281 57.320313 54.558594 57.398438 54.960938 57.320313 C 55.359375 57.320313 55.761719 57.238281 56.238281 57.160156 C 56.558594 57.078125 56.800781 56.839844 57.121094 56.679688 C 57.28125 56.597656 57.519531 56.359375 57.679688 56.199219 C 57.761719 55.878906 57.839844 55.71875 57.839844 55.398438 C 57.921875 55.238281 57.839844 54.917969 57.761719 54.597656 C 57.679688 54.277344 57.601563 54.121094 57.28125 53.960938 C 57.121094 53.800781 56.800781 53.640625 56.480469 53.640625 C 56.160156 53.558594 55.839844 53.480469 55.441406 53.480469 L 54.398438 53.480469 C 54 53.480469 53.601563 53.398438 53.28125 53.398438 C 52.878906 53.320313 52.480469 53.238281 52.238281 53 C 51.839844 52.917969 51.601563 52.597656 51.28125 52.359375 C 51.121094 52.199219 50.800781 51.800781 50.71875 51.320313 C 50.558594 50.839844 50.398438 50.4375 50.558594 49.960938 C 50.558594 49.558594 50.640625 49.078125 50.960938 48.679688 C 51.121094 48.277344 51.441406 47.878906 51.921875 47.640625 C 52.320313 47.238281 52.878906 47 53.441406 46.757813 C 53.761719 46.679688 54 46.597656 54.320313 46.4375 C 54.71875 46.4375 54.878906 46.359375 55.199219 46.359375 C 55.519531 46.359375 55.679688 46.359375 55.839844 46.4375 C 56 46.4375 56.238281 46.4375 56.320313 46.519531 C 56.398438 46.519531 56.398438 46.519531 56.480469 46.597656 C 56.480469 46.597656 56.558594 46.597656 56.558594 46.679688 C 56.558594 46.757813 56.640625 46.757813 56.640625 46.839844 C 56.71875 46.917969 56.71875 47 56.800781 47.160156 C 56.800781 47.320313 56.878906 47.480469 56.878906 47.558594 L 56.878906 47.878906 C 56.878906 48.039063 56.878906 47.960938 56.800781 48.039063 L 56.71875 48.121094 C 56.71875 48.121094 56.558594 48.121094 56.398438 48.039063 C 56.238281 48.039063 56 48.039063 55.761719 47.960938 L 54.878906 47.960938 C 54.558594 47.960938 54.238281 48.039063 53.921875 48.121094 C 53.519531 48.277344 53.28125 48.4375 53.039063 48.597656 C 52.800781 48.757813 52.640625 48.917969 52.558594 49.078125 C 52.398438 49.238281 52.398438 49.558594 52.398438 49.71875 C 52.320313 49.878906 52.398438 50.121094 52.480469 50.359375 C 52.558594 50.679688 52.640625 50.839844 52.960938 51 C 53.121094 51.160156 53.441406 51.320313 53.761719 51.320313 C 54.078125 51.398438 54.398438 51.480469 54.800781 51.480469 L 55.839844 51.480469 C 56.238281 51.480469 56.640625 51.558594 56.960938 51.558594 C 57.359375 51.640625 57.761719 51.71875 58.078125 51.878906 C 58.398438 52.039063 58.640625 52.277344 58.960938 52.519531 C 59.28125 53 59.519531 53.398438 59.679688 53.800781 Z M 71.441406 46.839844 C 71.761719 47.71875 71.921875 48.4375 71.921875 49.320313 C 72 50.121094 71.839844 50.839844 71.601563 51.558594 C 71.28125 52.199219 70.800781 52.917969 70.238281 53.398438 C 69.679688 53.960938 68.960938 54.359375 68 54.757813 C 67.121094 55.078125 66.398438 55.160156 65.601563 55.160156 C 64.800781 55.160156 64.160156 55 63.601563 54.597656 C 63.039063 54.199219 62.480469 53.71875 62 53.160156 C 61.601563 52.519531 61.199219 51.71875 60.878906 50.839844 C 60.558594 49.960938 60.398438 49.078125 60.398438 48.359375 C 60.398438 47.480469 60.480469 46.757813 60.800781 46.039063 C 60.960938 45.398438 61.441406 44.757813 62.078125 44.199219 C 62.640625 43.71875 63.441406 43.238281 64.320313 42.917969 C 65.199219 42.597656 65.921875 42.4375 66.71875 42.519531 C 67.519531 42.519531 68.160156 42.679688 68.71875 43.078125 C 69.359375 43.398438 69.839844 43.878906 70.320313 44.519531 C 70.71875 45.160156 71.121094 45.878906 71.441406 46.839844 Z M 69.519531 47.640625 C 69.199219 47.078125 69.039063 46.597656 68.71875 46.121094 C 68.398438 45.640625 68.078125 45.238281 67.761719 45 C 67.359375 44.679688 66.878906 44.519531 66.398438 44.4375 C 65.921875 44.359375 65.359375 44.4375 64.640625 44.597656 C 64.078125 44.757813 63.601563 45.078125 63.28125 45.480469 C 62.878906 45.878906 62.71875 46.277344 62.480469 46.757813 C 62.398438 47.238281 62.320313 47.71875 62.398438 48.277344 C 62.398438 48.839844 62.558594 49.398438 62.800781 50.039063 C 62.960938 50.597656 63.199219 51.160156 63.441406 51.640625 C 63.761719 52.039063 64.078125 52.4375 64.480469 52.757813 C 64.878906 53.078125 65.359375 53.238281 65.839844 53.238281 C 66.320313 53.320313 66.878906 53.238281 67.441406 53.078125 C 68 52.917969 68.480469 52.597656 68.878906 52.199219 C 69.199219 51.878906 69.441406 51.558594 69.519531 51.078125 C 69.679688 50.597656 69.679688 50.121094 69.679688 49.558594 C 69.761719 48.917969 69.679688 48.277344 69.519531 47.640625 Z M 78.160156 50.597656 C 78.238281 50.597656 78.238281 50.679688 78.160156 50.679688 C 78.160156 50.757813 78.160156 50.839844 78.078125 50.839844 C 78.078125 50.917969 78 50.917969 77.761719 51 C 77.679688 51.078125 77.601563 51.078125 77.359375 51.160156 C 77.199219 51.238281 76.960938 51.238281 76.878906 51.238281 C 76.71875 51.320313 76.558594 51.320313 76.480469 51.320313 C 76.398438 51.320313 76.398438 51.320313 76.320313 51.238281 L 76.238281 51.160156 L 70.640625 35.320313 L 70.640625 35.238281 C 70.640625 35.160156 70.71875 35.078125 70.71875 35.078125 C 70.800781 35 70.878906 34.917969 71.039063 34.917969 C 71.199219 34.839844 71.359375 34.839844 71.519531 34.757813 C 71.679688 34.679688 71.921875 34.679688 72 34.597656 L 72.398438 34.597656 C 72.398438 34.597656 72.480469 34.597656 72.558594 34.679688 C 72.558594 34.679688 72.558594 34.757813 72.640625 34.757813 Z M 83.679688 48.597656 L 83.679688 48.757813 C 83.679688 48.839844 83.601563 48.839844 83.601563 48.917969 C 83.519531 49 83.441406 49 83.28125 49.078125 C 83.199219 49.078125 82.960938 49.160156 82.800781 49.238281 C 82.640625 49.238281 82.398438 49.320313 82.320313 49.320313 C 82.238281 49.398438 82.160156 49.398438 82 49.398438 C 81.839844 49.398438 81.839844 49.320313 81.839844 49.320313 C 81.761719 49.320313 81.761719 49.238281 81.761719 49.238281 L 78 38.597656 L 78 38.4375 C 78 38.359375 78 38.359375 78.078125 38.277344 C 78.078125 38.277344 78.160156 38.199219 78.398438 38.121094 C 78.480469 38.121094 78.71875 38.039063 78.878906 37.960938 C 79.039063 37.960938 79.199219 37.878906 79.359375 37.878906 L 79.839844 37.878906 C 79.921875 37.960938 79.921875 37.960938 79.921875 38.039063 Z M 78.878906 34.277344 C 79.039063 34.757813 79.039063 35.160156 78.960938 35.320313 C 78.878906 35.480469 78.558594 35.800781 78.078125 35.878906 C 77.601563 36.039063 77.28125 36.039063 77.039063 35.960938 C 76.878906 35.878906 76.640625 35.558594 76.480469 35.160156 C 76.398438 34.679688 76.320313 34.277344 76.480469 34.121094 C 76.558594 33.800781 76.878906 33.640625 77.359375 33.558594 C 77.761719 33.398438 78.160156 33.398438 78.320313 33.480469 C 78.640625 33.640625 78.800781 33.878906 78.878906 34.277344 Z M 96.398438 44.199219 L 96.398438 44.359375 C 96.398438 44.359375 96.398438 44.4375 96.320313 44.519531 C 96.320313 44.519531 96.238281 44.597656 96.160156 44.597656 C 96.078125 44.679688 95.839844 44.679688 95.761719 44.757813 C 95.601563 44.839844 95.359375 44.839844 95.28125 44.839844 C 95.199219 44.839844 95.121094 44.917969 94.960938 44.839844 L 94.800781 44.839844 C 94.800781 44.839844 94.71875 44.757813 94.71875 44.679688 L 94.238281 43.320313 C 93.839844 44.121094 93.441406 44.757813 92.960938 45.320313 C 92.480469 45.878906 91.921875 46.277344 91.121094 46.4375 C 90.320313 46.757813 89.679688 46.839844 89.039063 46.757813 C 88.398438 46.679688 87.761719 46.359375 87.199219 45.960938 C 86.71875 45.558594 86.238281 45.078125 85.839844 44.4375 C 85.441406 43.800781 85.039063 43.078125 84.800781 42.359375 C 84.480469 41.398438 84.320313 40.519531 84.238281 39.800781 C 84.238281 39 84.238281 38.277344 84.398438 37.558594 C 84.71875 36.917969 84.960938 36.277344 85.441406 35.800781 C 85.921875 35.320313 86.480469 34.917969 87.28125 34.757813 C 87.921875 34.4375 88.558594 34.4375 89.121094 34.597656 C 89.761719 34.679688 90.480469 34.917969 91.121094 35.238281 L 88.878906 29 L 88.878906 28.839844 C 88.878906 28.839844 88.878906 28.757813 88.960938 28.757813 C 89.039063 28.679688 89.121094 28.597656 89.28125 28.597656 C 89.359375 28.519531 89.601563 28.519531 89.761719 28.4375 C 89.921875 28.359375 90.160156 28.359375 90.238281 28.277344 L 90.558594 28.277344 C 90.71875 28.277344 90.71875 28.277344 90.71875 28.359375 C 90.800781 28.359375 90.800781 28.4375 90.878906 28.4375 Z M 91.761719 37.398438 C 90.960938 36.917969 90.320313 36.597656 89.761719 36.4375 C 89.199219 36.359375 88.640625 36.359375 88 36.519531 C 87.519531 36.597656 87.121094 36.917969 86.878906 37.320313 C 86.558594 37.71875 86.480469 38.121094 86.398438 38.597656 C 86.320313 39.078125 86.320313 39.558594 86.398438 40.039063 C 86.398438 40.597656 86.558594 41.078125 86.71875 41.558594 C 86.878906 42.121094 87.199219 42.597656 87.519531 43.078125 C 87.679688 43.558594 88 43.960938 88.398438 44.359375 C 88.800781 44.679688 89.199219 44.839844 89.519531 45 C 89.921875 45.078125 90.398438 45.078125 90.960938 44.917969 C 91.121094 44.839844 91.441406 44.757813 91.601563 44.519531 C 91.761719 44.277344 92 44.121094 92.160156 43.960938 C 92.320313 43.640625 92.558594 43.398438 92.71875 43 C 92.878906 42.597656 93.121094 42.199219 93.28125 41.71875 Z M 108.960938 39.160156 C 108.960938 39.320313 109.039063 39.480469 109.039063 39.558594 L 109.039063 39.878906 C 108.960938 39.960938 108.960938 40.039063 108.960938 40.039063 C 108.878906 40.121094 108.878906 40.121094 108.800781 40.121094 L 100.800781 42.917969 C 100.71875 42.917969 100.71875 43 100.640625 42.917969 L 100.480469 42.917969 C 100.480469 42.839844 100.398438 42.757813 100.320313 42.597656 C 100.320313 42.519531 100.238281 42.4375 100.238281 42.199219 C 100.160156 42.121094 100.160156 42.039063 100.160156 41.878906 L 100.160156 41.398438 L 100.320313 41.238281 L 103.519531 40.199219 L 99.519531 28.597656 L 97.121094 31.398438 L 96.800781 31.71875 L 96.640625 31.71875 C 96.558594 31.640625 96.480469 31.640625 96.480469 31.558594 C 96.398438 31.398438 96.320313 31.238281 96.320313 31.078125 C 96.238281 31 96.238281 30.757813 96.238281 30.679688 C 96.160156 30.597656 96.160156 30.519531 96.160156 30.519531 C 96.160156 30.4375 96.160156 30.359375 96.238281 30.359375 C 96.238281 30.277344 96.238281 30.199219 96.320313 30.199219 L 99.039063 26.679688 C 99.121094 26.679688 99.121094 26.597656 99.121094 26.597656 C 99.199219 26.597656 99.199219 26.519531 99.28125 26.519531 C 99.359375 26.519531 99.441406 26.4375 99.601563 26.4375 C 99.679688 26.359375 99.761719 26.359375 99.921875 26.277344 C 100.078125 26.277344 100.320313 26.199219 100.398438 26.199219 C 100.558594 26.199219 100.71875 26.121094 100.800781 26.121094 C 100.800781 26.199219 100.878906 26.199219 100.878906 26.199219 C 100.960938 26.199219 100.960938 26.277344 100.960938 26.277344 L 105.679688 39.71875 L 108.480469 38.757813 L 108.640625 38.757813 C 108.71875 38.757813 108.800781 38.839844 108.800781 38.839844 L 108.960938 39 C 109.039063 39.078125 108.878906 39.078125 108.960938 39.160156 Z M 108.960938 39.160156 "/>
<path style=" stroke:none;fill-rule:nonzero;fill:rgb(0%,0%,0%);fill-opacity:1;" d="M 112.320313 12.039063 L 112.71875 11.238281 L 113.28125 10.597656 L 113.839844 9.960938 L 114.398438 9.320313 L 115.039063 8.757813 L 116.320313 7.640625 L 117.121094 7.160156 L 118 6.757813 L 118.800781 6.277344 L 119.679688 5.878906 L 120.640625 5.480469 L 122.558594 4.917969 L 124.558594 4.359375 L 126.800781 3.960938 L 129.121094 3.800781 L 131.519531 3.640625 L 134 3.640625 L 136.71875 3.71875 L 139.441406 3.878906 L 142.238281 4.277344 L 145.199219 4.679688 L 148.160156 5.238281 L 151.199219 5.878906 L 154.398438 6.679688 L 157.601563 7.558594 L 160.960938 8.519531 L 164.320313 9.640625 L 167.679688 10.757813 L 171.121094 12.121094 L 174.558594 13.558594 L 178.078125 15.078125 L 181.601563 16.679688 L 185.28125 18.4375 L 188.800781 20.277344 L 192.480469 22.199219 L 196.160156 24.199219 L 199.839844 26.277344 L 203.359375 28.519531 L 206.878906 30.757813 L 210.320313 33.078125 L 213.601563 35.398438 L 216.878906 37.71875 L 219.921875 40.121094 L 222.960938 42.4375 L 225.839844 44.839844 L 228.640625 47.320313 L 231.359375 49.71875 L 233.921875 52.121094 L 236.320313 54.519531 L 238.640625 56.917969 L 240.878906 59.320313 L 242.878906 61.71875 L 244.800781 64.121094 L 246.640625 66.4375 L 247.441406 67.71875 L 248.320313 68.839844 L 249.121094 69.960938 L 249.761719 71.078125 L 250.398438 72.199219 L 251.039063 73.238281 L 251.601563 74.359375 L 252.160156 75.398438 L 252.71875 76.519531 L 253.679688 78.597656 L 254.078125 79.640625 L 254.480469 80.679688 L 255.121094 82.757813 L 255.441406 83.800781 L 255.601563 84.757813 L 255.761719 85.71875 L 255.839844 86.679688 L 255.921875 87.640625 L 255.921875 89.71875 L 255.839844 90.597656 L 255.761719 91.480469 L 255.601563 92.4375 L 255.441406 93.238281 L 255.121094 94.121094 L 254.71875 94.917969 L 254.398438 95.800781 L 253.921875 96.597656 L 253.441406 97.238281 L 252.960938 98.039063 L 252.398438 98.679688 L 251.839844 99.238281 L 251.199219 99.800781 L 250.558594 100.359375 L 249.921875 100.917969 L 249.121094 101.398438 L 248.238281 101.878906 L 247.359375 102.277344 L 246.480469 102.679688 L 245.601563 103.078125 L 243.679688 103.71875 L 241.679688 104.199219 L 239.441406 104.597656 L 237.121094 104.917969 L 234.71875 105 L 232.238281 105 L 229.519531 104.917969 L 226.800781 104.757813 L 223.921875 104.4375 L 221.039063 103.960938 L 218.078125 103.398438 L 215.039063 102.757813 L 211.839844 101.960938 L 208.558594 101.078125 L 205.28125 100.121094 L 201.921875 99 L 198.558594 97.878906 L 195.121094 96.519531 L 191.601563 95.078125 L 188.078125 93.640625 L 184.558594 92.039063 L 181.039063 90.277344 L 177.359375 88.4375 L 173.679688 86.519531 L 170.160156 84.4375 L 166.480469 82.359375 L 162.800781 80.277344 L 159.359375 77.960938 L 155.921875 75.71875 L 152.640625 73.398438 L 149.359375 71 L 146.160156 68.679688 L 143.199219 66.277344 L 140.320313 63.878906 L 137.519531 61.480469 L 134.800781 59.078125 L 132.238281 56.597656 L 129.839844 54.199219 L 127.519531 51.800781 L 125.28125 49.398438 L 123.28125 47 L 121.359375 44.597656 L 119.519531 42.277344 L 118.640625 41.160156 L 117.039063 38.917969 L 116.398438 37.800781 L 115.601563 36.679688 L 115.039063 35.558594 L 114.398438 34.4375 L 113.839844 33.398438 L 113.359375 32.359375 L 112.878906 31.238281 L 112.398438 30.199219 L 111.601563 28.121094 L 111.199219 27.078125 L 110.878906 26.039063 L 110.71875 25.078125 L 110.558594 24.039063 L 110.398438 23.078125 L 110.320313 22.121094 L 110.238281 21.160156 L 110.238281 19.320313 L 110.320313 18.359375 L 110.398438 17.480469 L 110.558594 16.597656 L 110.71875 15.71875 L 111.039063 14.839844 L 111.359375 14.039063 L 111.761719 13.238281 Z M 113.28125 13.480469 L 112.960938 14.121094 L 112.640625 14.757813 L 112.320313 15.558594 L 112.160156 16.359375 L 112.078125 17.160156 L 112 17.960938 L 111.921875 18.839844 L 111.921875 21.480469 L 112.078125 22.359375 L 112.160156 23.320313 L 112.320313 24.277344 L 112.480469 25.238281 L 112.800781 26.199219 L 113.199219 27.160156 L 113.519531 28.199219 L 113.921875 29.160156 L 114.398438 30.199219 L 115.359375 32.277344 L 115.921875 33.320313 L 116.480469 34.4375 L 117.121094 35.480469 L 117.761719 36.597656 L 118.398438 37.640625 L 119.199219 38.757813 L 120.800781 41 L 124.480469 45.640625 L 126.480469 48.039063 L 128.71875 50.4375 L 130.960938 52.757813 L 133.441406 55.160156 L 135.921875 57.558594 L 138.480469 59.960938 L 141.28125 62.359375 L 144.160156 64.757813 L 147.121094 67.160156 L 150.320313 69.558594 L 153.519531 71.878906 L 156.800781 74.199219 L 160.238281 76.4375 L 163.679688 78.679688 L 167.199219 80.917969 L 170.878906 83 L 174.398438 85 L 178.078125 86.917969 L 181.601563 88.757813 L 188.640625 91.960938 L 192.160156 93.480469 L 195.601563 94.917969 L 202.320313 97.480469 L 205.679688 98.519531 L 208.960938 99.480469 L 212.160156 100.359375 L 215.199219 101.160156 L 218.238281 101.800781 L 221.121094 102.359375 L 224 102.757813 L 226.800781 103.160156 L 229.519531 103.320313 L 232 103.398438 L 234.480469 103.398438 L 236.800781 103.238281 L 239.039063 103.078125 L 241.121094 102.679688 L 243.039063 102.199219 L 244.878906 101.640625 L 245.679688 101.238281 L 246.558594 100.839844 L 247.359375 100.4375 L 248.160156 100.039063 L 248.800781 99.558594 L 249.359375 99.078125 L 250 98.597656 L 250.558594 98.121094 L 251.039063 97.558594 L 251.601563 97 L 252 96.359375 L 252.480469 95.800781 L 252.878906 95.160156 L 253.199219 94.359375 L 253.519531 93.71875 L 253.679688 92.917969 L 253.839844 92.121094 L 254 91.320313 L 254.078125 90.519531 L 254.160156 89.640625 L 254.160156 87.960938 L 254.078125 87 L 254 86.121094 L 253.921875 85.160156 L 253.761719 84.277344 L 253.441406 83.238281 L 253.28125 82.277344 L 252.878906 81.320313 L 252.558594 80.359375 L 252.078125 79.320313 L 251.679688 78.277344 L 250.71875 76.199219 L 249.601563 74.121094 L 248.960938 73 L 248.320313 71.960938 L 247.679688 70.839844 L 246.078125 68.597656 L 245.199219 67.480469 L 243.441406 65.160156 L 241.601563 62.839844 L 239.601563 60.519531 L 237.359375 58.121094 L 235.039063 55.71875 L 232.640625 53.320313 L 230.160156 50.917969 L 227.441406 48.519531 L 224.71875 46.121094 L 221.761719 43.800781 L 218.800781 41.398438 L 215.761719 39.078125 L 212.558594 36.679688 L 209.199219 34.4375 L 205.839844 32.121094 L 202.398438 29.878906 L 198.71875 27.640625 L 195.199219 25.558594 L 191.519531 23.558594 L 188 21.640625 L 184.320313 19.878906 L 180.800781 18.121094 L 177.28125 16.519531 L 173.839844 15 L 170.398438 13.640625 L 166.960938 12.277344 L 163.601563 11.160156 L 160.320313 10.039063 L 157.039063 9.078125 L 153.839844 8.199219 L 150.800781 7.398438 L 147.761719 6.757813 L 144.800781 6.277344 L 142 5.800781 L 139.199219 5.480469 L 136.480469 5.320313 L 133.921875 5.238281 L 131.519531 5.238281 L 129.199219 5.320313 L 126.960938 5.640625 L 124.878906 5.960938 L 122.960938 6.4375 L 121.121094 7.078125 L 120.238281 7.398438 L 119.441406 7.800781 L 117.839844 8.597656 L 116.558594 9.558594 L 116 10.039063 L 114.878906 11.160156 L 114.398438 11.71875 L 113.921875 12.277344 L 113.519531 12.917969 Z M 113.28125 13.480469 "/>
<path style=" stroke:none;fill-rule:nonzero;fill:rgb(0%,0%,0%);fill-opacity:1;" d="M 161.679688 47.558594 C 161.359375 48.039063 161.039063 48.4375 160.640625 48.679688 C 160.160156 49 159.761719 49.078125 159.28125 49.160156 C 158.71875 49.238281 158.238281 49.160156 157.679688 49.078125 C 157.199219 48.917969 156.640625 48.679688 156.078125 48.277344 C 155.679688 48.121094 155.441406 47.878906 155.121094 47.71875 C 154.800781 47.398438 154.640625 47.238281 154.480469 46.917969 C 154.320313 46.757813 154.078125 46.519531 154 46.359375 C 153.921875 46.199219 153.839844 45.960938 153.679688 45.878906 L 153.679688 45.480469 C 153.761719 45.320313 153.839844 45.078125 154 44.917969 C 154.078125 44.757813 154.160156 44.597656 154.320313 44.519531 C 154.320313 44.4375 154.398438 44.4375 154.398438 44.359375 L 154.71875 44.359375 C 154.800781 44.359375 154.878906 44.519531 155.039063 44.757813 C 155.121094 44.917969 155.199219 45.160156 155.441406 45.398438 C 155.519531 45.558594 155.761719 45.878906 156 46.199219 C 156.320313 46.519531 156.558594 46.679688 156.960938 47 C 157.28125 47.160156 157.519531 47.320313 157.839844 47.398438 C 158.160156 47.480469 158.398438 47.480469 158.71875 47.480469 C 158.878906 47.480469 159.199219 47.398438 159.359375 47.320313 C 159.519531 47.160156 159.761719 46.917969 159.921875 46.679688 C 160 46.359375 160.078125 46.199219 160.078125 45.878906 C 160 45.558594 160 45.320313 159.761719 45 C 159.679688 44.679688 159.441406 44.4375 159.199219 44.121094 C 159.039063 43.800781 158.800781 43.558594 158.558594 43.238281 C 158.398438 42.917969 158.160156 42.679688 158 42.277344 C 157.679688 41.960938 157.601563 41.640625 157.519531 41.320313 C 157.441406 40.917969 157.441406 40.519531 157.441406 40.199219 C 157.519531 39.800781 157.601563 39.398438 157.921875 38.917969 C 158.078125 38.519531 158.398438 38.277344 158.800781 37.960938 C 159.199219 37.640625 159.601563 37.558594 159.921875 37.480469 C 160.398438 37.398438 160.878906 37.398438 161.441406 37.480469 C 161.921875 37.558594 162.480469 37.800781 163.039063 38.121094 C 163.359375 38.277344 163.601563 38.519531 163.839844 38.679688 C 164 38.839844 164.320313 39.078125 164.398438 39.238281 L 164.878906 39.71875 C 164.960938 39.878906 164.960938 40.039063 165.039063 40.121094 L 165.039063 40.597656 C 165.039063 40.597656 165.039063 40.679688 164.960938 40.757813 C 164.960938 40.839844 164.878906 40.917969 164.878906 41.078125 L 164.558594 41.398438 C 164.558594 41.480469 164.480469 41.558594 164.398438 41.558594 C 164.398438 41.640625 164.320313 41.640625 164.320313 41.640625 L 164.160156 41.640625 C 164.160156 41.558594 164.078125 41.480469 164 41.320313 C 163.921875 41.160156 163.839844 40.917969 163.679688 40.757813 C 163.519531 40.597656 163.28125 40.359375 163.121094 40.121094 C 162.960938 39.960938 162.640625 39.640625 162.320313 39.480469 C 161.921875 39.320313 161.679688 39.160156 161.441406 39.078125 L 160.640625 39.078125 C 160.480469 39.078125 160.238281 39.160156 160.078125 39.398438 C 159.921875 39.480469 159.679688 39.71875 159.601563 39.878906 C 159.441406 40.199219 159.441406 40.359375 159.441406 40.679688 C 159.441406 41 159.519531 41.238281 159.761719 41.558594 C 159.839844 41.878906 160.078125 42.121094 160.238281 42.4375 C 160.558594 42.757813 160.71875 43 161.039063 43.320313 C 161.199219 43.640625 161.441406 43.960938 161.601563 44.277344 C 161.921875 44.597656 162 44.917969 162.078125 45.320313 C 162.160156 45.640625 162.238281 45.960938 162.160156 46.359375 C 162 46.679688 161.839844 47.078125 161.679688 47.558594 Z M 174.480469 52.039063 C 174 52.839844 173.441406 53.480469 172.878906 54.039063 C 172.320313 54.519531 171.601563 54.917969 170.960938 55.160156 C 170.320313 55.320313 169.519531 55.480469 168.71875 55.320313 C 167.921875 55.238281 167.121094 54.917969 166.320313 54.4375 C 165.441406 53.960938 164.878906 53.398438 164.398438 52.839844 C 164 52.277344 163.761719 51.558594 163.519531 50.917969 C 163.441406 50.277344 163.441406 49.558594 163.601563 48.839844 C 163.761719 48.121094 164.160156 47.238281 164.640625 46.4375 C 165.121094 45.640625 165.601563 45 166.238281 44.4375 C 166.800781 43.960938 167.519531 43.480469 168.160156 43.320313 C 168.800781 43.160156 169.601563 43 170.398438 43.160156 C 171.199219 43.320313 171.921875 43.558594 172.800781 44.039063 C 173.601563 44.519531 174.238281 45.078125 174.640625 45.640625 C 175.121094 46.199219 175.441406 46.917969 175.519531 47.558594 C 175.679688 48.199219 175.601563 48.917969 175.441406 49.640625 C 175.28125 50.4375 174.960938 51.320313 174.480469 52.039063 Z M 172.558594 51.078125 C 172.878906 50.519531 173.121094 50.039063 173.359375 49.480469 C 173.519531 49 173.519531 48.519531 173.519531 48.039063 C 173.519531 47.558594 173.441406 47.078125 173.121094 46.597656 C 172.800781 46.199219 172.480469 45.800781 171.839844 45.480469 C 171.28125 45.160156 170.800781 45 170.320313 45 C 169.839844 44.917969 169.359375 45 168.878906 45.160156 C 168.480469 45.320313 168 45.640625 167.601563 46.039063 C 167.199219 46.4375 166.800781 46.917969 166.558594 47.480469 C 166.238281 48.039063 166 48.519531 165.761719 49.078125 C 165.601563 49.558594 165.441406 50.039063 165.601563 50.519531 C 165.601563 51 165.679688 51.480469 166 51.960938 C 166.320313 52.359375 166.640625 52.757813 167.28125 53.078125 C 167.761719 53.398438 168.320313 53.558594 168.800781 53.558594 C 169.28125 53.640625 169.761719 53.558594 170.238281 53.398438 C 170.640625 53.238281 171.121094 52.917969 171.519531 52.519531 C 171.921875 52.121094 172.320313 51.640625 172.558594 51.078125 Z M 175.921875 59.640625 L 175.839844 59.71875 L 175.679688 59.71875 C 175.601563 59.71875 175.519531 59.71875 175.28125 59.640625 C 175.199219 59.640625 175.121094 59.558594 174.878906 59.480469 C 174.71875 59.398438 174.480469 59.320313 174.398438 59.160156 C 174.320313 59 174.238281 59 174.238281 59 C 174.160156 58.917969 174.160156 58.839844 174.160156 58.839844 C 174.160156 58.757813 174.160156 58.679688 174.238281 58.679688 L 182.800781 44.277344 L 182.878906 44.199219 L 183.039063 44.199219 C 183.121094 44.199219 183.199219 44.199219 183.359375 44.277344 C 183.519531 44.277344 183.679688 44.359375 183.839844 44.4375 C 184 44.519531 184.160156 44.597656 184.320313 44.757813 C 184.398438 44.839844 184.398438 44.917969 184.480469 44.917969 C 184.480469 45 184.558594 45.078125 184.558594 45.078125 C 184.558594 45.160156 184.558594 45.238281 184.480469 45.238281 Z M 180.960938 62.597656 C 180.960938 62.679688 180.960938 62.679688 180.878906 62.679688 C 180.878906 62.757813 180.800781 62.757813 180.71875 62.757813 C 180.640625 62.679688 180.558594 62.679688 180.398438 62.679688 C 180.320313 62.597656 180.078125 62.519531 179.921875 62.359375 C 179.761719 62.199219 179.601563 62.199219 179.519531 62.039063 C 179.441406 61.960938 179.359375 61.878906 179.199219 61.878906 L 179.199219 61.71875 C 179.121094 61.640625 179.199219 61.640625 179.199219 61.558594 L 184.960938 51.878906 L 185.039063 51.800781 L 185.199219 51.800781 C 185.28125 51.800781 185.359375 51.800781 185.601563 51.878906 C 185.679688 51.878906 185.921875 51.960938 186 52.039063 C 186.160156 52.121094 186.398438 52.199219 186.480469 52.359375 C 186.558594 52.519531 186.640625 52.519531 186.640625 52.679688 C 186.71875 52.679688 186.71875 52.757813 186.71875 52.839844 L 186.71875 52.917969 Z M 188.878906 49.878906 C 188.558594 50.277344 188.398438 50.4375 188.078125 50.519531 C 187.921875 50.519531 187.519531 50.4375 187.121094 50.199219 C 186.640625 49.878906 186.480469 49.71875 186.320313 49.398438 C 186.320313 49.238281 186.320313 48.839844 186.640625 48.4375 C 186.960938 48.039063 187.121094 47.800781 187.441406 47.800781 C 187.601563 47.71875 188 47.800781 188.398438 48.121094 C 188.878906 48.277344 189.039063 48.597656 189.199219 48.757813 C 189.199219 49.078125 189.199219 49.398438 188.878906 49.878906 Z M 192.558594 69.558594 C 192.480469 69.558594 192.480469 69.640625 192.398438 69.640625 L 192.238281 69.640625 C 192.238281 69.640625 192.160156 69.640625 192.078125 69.558594 C 191.921875 69.558594 191.761719 69.480469 191.679688 69.398438 C 191.519531 69.320313 191.359375 69.320313 191.28125 69.238281 L 191.121094 69.078125 C 191.039063 69 191.039063 68.917969 191.039063 68.917969 L 191.039063 68.757813 L 191.839844 67.480469 C 191.039063 67.640625 190.238281 67.800781 189.519531 67.800781 C 188.71875 67.800781 188.078125 67.640625 187.441406 67.238281 C 186.800781 66.757813 186.160156 66.277344 185.921875 65.71875 C 185.519531 65.160156 185.359375 64.597656 185.359375 63.878906 C 185.359375 63.160156 185.441406 62.519531 185.679688 61.878906 C 186 61.078125 186.238281 60.4375 186.640625 59.640625 C 187.121094 58.839844 187.679688 58.121094 188.238281 57.640625 C 188.800781 57.078125 189.359375 56.597656 190.078125 56.359375 C 190.71875 56.039063 191.359375 55.960938 192 55.960938 C 192.640625 56.039063 193.359375 56.277344 194.078125 56.757813 C 194.558594 57.078125 195.039063 57.558594 195.359375 58.039063 C 195.761719 58.597656 195.921875 59.160156 196.160156 59.960938 L 199.519531 54.359375 C 199.519531 54.277344 199.601563 54.277344 199.601563 54.199219 L 199.921875 54.199219 C 199.921875 54.199219 200.078125 54.277344 200.238281 54.277344 C 200.320313 54.359375 200.558594 54.359375 200.640625 54.4375 C 200.800781 54.597656 201.039063 54.757813 201.121094 54.757813 C 201.199219 54.839844 201.28125 54.917969 201.28125 55.078125 C 201.359375 55.078125 201.359375 55.160156 201.359375 55.238281 L 201.359375 55.398438 Z M 194.800781 61.640625 C 194.71875 60.757813 194.480469 60.039063 194.238281 59.398438 C 194.078125 58.839844 193.679688 58.359375 193.199219 58.039063 C 192.71875 57.878906 192.238281 57.640625 191.839844 57.71875 C 191.359375 57.71875 190.960938 57.800781 190.480469 58.121094 C 190.078125 58.277344 189.679688 58.597656 189.359375 59 C 189.039063 59.480469 188.800781 59.878906 188.480469 60.359375 C 188.160156 60.839844 187.921875 61.320313 187.679688 61.800781 C 187.519531 62.359375 187.359375 62.839844 187.28125 63.320313 C 187.28125 63.800781 187.359375 64.199219 187.601563 64.597656 C 187.761719 65.078125 188.078125 65.398438 188.558594 65.640625 C 188.71875 65.71875 189.039063 65.960938 189.199219 65.960938 C 189.519531 66.039063 189.761719 66.039063 190.078125 66.039063 C 190.480469 66.039063 190.71875 65.960938 191.199219 65.878906 C 191.601563 65.800781 192 65.71875 192.480469 65.480469 Z M 204.398438 75.878906 C 204.320313 75.960938 204.320313 76.039063 204.238281 76.199219 C 204.160156 76.277344 204.078125 76.359375 204.078125 76.519531 L 203.601563 76.519531 L 195.921875 71.878906 C 195.839844 71.800781 195.761719 71.800781 195.761719 71.71875 C 195.679688 71.640625 195.601563 71.558594 195.601563 71.398438 C 195.601563 71.398438 195.601563 71.238281 195.679688 71.078125 C 195.679688 71 195.761719 70.757813 195.839844 70.679688 C 195.921875 70.519531 195.921875 70.359375 196 70.277344 L 196.320313 69.960938 C 196.398438 69.960938 196.480469 69.878906 196.640625 69.878906 C 196.71875 69.800781 196.800781 69.800781 197.039063 69.71875 L 201.441406 68.597656 C 202.480469 68.277344 203.359375 68.039063 204 67.71875 C 204.800781 67.398438 205.359375 67.160156 205.839844 66.839844 C 206.238281 66.4375 206.640625 66.199219 206.878906 65.878906 C 207.199219 65.558594 207.359375 65.238281 207.519531 64.917969 C 207.679688 64.597656 207.921875 64.359375 207.921875 63.960938 C 208 63.640625 208 63.320313 207.921875 63 C 207.839844 62.597656 207.761719 62.359375 207.441406 62.039063 C 207.28125 61.71875 206.960938 61.480469 206.558594 61.238281 C 206.078125 60.917969 205.679688 60.757813 205.199219 60.679688 C 204.800781 60.597656 204.398438 60.597656 204.078125 60.597656 C 203.679688 60.519531 203.441406 60.519531 203.121094 60.519531 C 202.960938 60.597656 202.71875 60.519531 202.640625 60.519531 C 202.558594 60.519531 202.558594 60.4375 202.558594 60.4375 C 202.558594 60.359375 202.480469 60.277344 202.558594 60.121094 C 202.558594 60.121094 202.558594 60.039063 202.640625 59.800781 C 202.640625 59.71875 202.71875 59.640625 202.800781 59.398438 C 202.800781 59.320313 202.878906 59.238281 202.960938 59.078125 C 202.960938 59.078125 203.039063 59 203.039063 58.917969 C 203.121094 58.917969 203.121094 58.917969 203.199219 58.839844 C 203.28125 58.839844 203.359375 58.839844 203.519531 58.757813 L 204.078125 58.757813 C 204.398438 58.757813 204.71875 58.757813 205.121094 58.839844 C 205.519531 58.917969 206 59 206.398438 59.160156 C 206.878906 59.320313 207.28125 59.558594 207.679688 59.71875 C 208.480469 60.121094 208.960938 60.597656 209.28125 61.078125 C 209.679688 61.558594 209.921875 62.121094 210.078125 62.597656 C 210.238281 63.160156 210.238281 63.640625 210.160156 64.199219 C 210.078125 64.679688 209.839844 65.238281 209.601563 65.71875 C 209.28125 66.199219 209.039063 66.597656 208.640625 67 C 208.320313 67.398438 207.839844 67.800781 207.28125 68.121094 C 206.800781 68.519531 206 68.757813 205.199219 69.160156 C 204.320313 69.480469 203.28125 69.800781 202 70.121094 L 198.480469 71.160156 L 204.558594 74.679688 C 204.558594 74.757813 204.640625 74.757813 204.640625 74.839844 C 204.71875 74.839844 204.71875 74.917969 204.71875 75 C 204.71875 75.078125 204.71875 75.160156 204.640625 75.320313 C 204.558594 75.558594 204.480469 75.800781 204.398438 75.878906 Z M 204.398438 75.878906 "/>
<path style=" stroke:none;fill-rule:nonzero;fill:rgb(0%,0%,0%);fill-opacity:1;" d="M 209.839844 89.238281 L 209.519531 88.359375 L 209.199219 87.558594 L 208.878906 85.800781 L 208.800781 84.917969 L 208.800781 82.199219 L 208.878906 81.238281 L 209.039063 80.359375 L 209.199219 79.398438 L 209.519531 78.4375 L 209.839844 77.480469 L 210.160156 76.519531 L 210.558594 75.558594 L 211.039063 74.597656 L 211.519531 73.558594 L 212 72.597656 L 212.558594 71.640625 L 213.121094 70.597656 L 213.761719 69.640625 L 214.398438 68.597656 L 215.039063 67.558594 L 215.839844 66.597656 L 216.640625 65.558594 L 217.519531 64.519531 L 218.398438 63.558594 L 220.320313 61.480469 L 221.28125 60.4375 L 223.359375 58.359375 L 225.601563 56.359375 L 227.921875 54.277344 L 230.398438 52.199219 L 233.121094 50.199219 L 235.839844 48.121094 L 238.71875 46.121094 L 241.679688 44.121094 L 248.078125 40.121094 L 251.441406 38.199219 L 254.800781 36.277344 L 258.320313 34.4375 L 265.679688 30.757813 L 269.519531 29 L 273.359375 27.398438 L 277.28125 25.800781 L 284.960938 22.917969 L 288.800781 21.558594 L 292.640625 20.4375 L 296.398438 19.320313 L 300.078125 18.359375 L 303.761719 17.398438 L 307.441406 16.597656 L 310.960938 15.800781 L 314.398438 15.238281 L 317.761719 14.679688 L 321.121094 14.277344 L 324.320313 13.878906 L 327.519531 13.71875 L 330.558594 13.558594 L 333.441406 13.558594 L 336.320313 13.640625 L 339.039063 13.71875 L 341.761719 14.039063 L 344.238281 14.4375 L 346.558594 14.917969 L 348.878906 15.480469 L 349.921875 15.800781 L 350.960938 16.199219 L 351.921875 16.597656 L 352.878906 17 L 353.839844 17.480469 L 354.71875 17.878906 L 355.601563 18.359375 L 356.398438 18.917969 L 357.199219 19.398438 L 358 19.960938 L 358.640625 20.519531 L 359.28125 21.160156 L 359.839844 21.800781 L 360.398438 22.4375 L 360.878906 23.078125 L 361.359375 23.878906 L 361.761719 24.679688 L 362.160156 25.480469 L 362.480469 26.359375 L 362.800781 27.160156 L 363.121094 28.917969 L 363.199219 29.800781 L 363.199219 32.519531 L 363.121094 33.480469 L 362.960938 34.4375 L 362.800781 35.320313 L 362.480469 36.277344 L 361.839844 38.199219 L 361.441406 39.160156 L 360.960938 40.121094 L 360.480469 41.160156 L 360 42.121094 L 359.441406 43.078125 L 358.878906 44.121094 L 358.238281 45.160156 L 357.601563 46.121094 L 356.960938 47.160156 L 356.160156 48.121094 L 355.359375 49.160156 L 353.601563 51.238281 L 352.640625 52.199219 L 350.71875 54.277344 L 349.679688 55.320313 L 348.640625 56.359375 L 346.398438 58.359375 L 344.078125 60.4375 L 341.601563 62.519531 L 338.878906 64.519531 L 336.160156 66.597656 L 333.28125 68.597656 L 330.320313 70.597656 L 327.121094 72.597656 L 323.921875 74.519531 L 320.558594 76.519531 L 317.199219 78.4375 L 313.679688 80.277344 L 310 82.121094 L 306.320313 83.878906 L 302.480469 85.640625 L 298.640625 87.398438 L 294.800781 89 L 290.878906 90.4375 L 287.039063 91.878906 L 283.199219 93.238281 L 279.359375 94.359375 L 275.601563 95.480469 L 271.921875 96.4375 L 268.238281 97.398438 L 264.558594 98.199219 L 261.039063 99 L 257.601563 99.640625 L 254.238281 100.121094 L 250.878906 100.519531 L 247.679688 100.917969 L 244.480469 101.078125 L 241.441406 101.238281 L 238.558594 101.238281 L 235.679688 101.160156 L 232.960938 101.078125 L 230.238281 100.757813 L 227.761719 100.359375 L 225.441406 99.878906 L 223.199219 99.320313 L 222.078125 99 L 221.121094 98.597656 L 220.078125 98.199219 L 219.121094 97.800781 L 218.160156 97.320313 L 217.28125 96.917969 L 216.398438 96.4375 L 215.601563 95.878906 L 214.800781 95.398438 L 214 94.839844 L 213.359375 94.277344 L 212.71875 93.640625 L 211.601563 92.359375 L 211.121094 91.71875 L 210.640625 90.917969 L 210.238281 90.121094 Z M 211.679688 89.238281 L 212 89.878906 L 212.480469 90.519531 L 212.878906 91.160156 L 213.359375 91.71875 L 213.921875 92.277344 L 214.480469 92.839844 L 215.039063 93.398438 L 215.839844 93.878906 L 216.480469 94.359375 L 217.28125 94.839844 L 218.078125 95.320313 L 218.878906 95.71875 L 219.839844 96.199219 L 220.71875 96.597656 L 221.679688 96.917969 L 222.640625 97.320313 L 223.679688 97.640625 L 225.761719 98.199219 L 228.078125 98.679688 L 230.480469 99 L 233.039063 99.320313 L 235.601563 99.480469 L 241.359375 99.480469 L 244.320313 99.398438 L 247.359375 99.078125 L 250.558594 98.757813 L 253.839844 98.359375 L 257.199219 97.800781 L 260.640625 97.238281 L 264.078125 96.4375 L 267.761719 95.640625 L 271.28125 94.679688 L 275.039063 93.71875 L 278.71875 92.597656 L 282.558594 91.480469 L 286.320313 90.121094 L 290.160156 88.757813 L 297.839844 85.71875 L 301.679688 83.960938 L 305.441406 82.199219 L 309.199219 80.4375 L 312.71875 78.597656 L 316.160156 76.757813 L 319.601563 74.839844 L 322.878906 72.917969 L 326.078125 71 L 329.121094 69 L 332.078125 67 L 334.960938 65 L 337.679688 63 L 340.238281 61 L 342.71875 59 L 345.039063 56.917969 L 347.28125 54.917969 L 349.28125 52.917969 L 350.238281 51.878906 L 351.199219 50.839844 L 352.078125 49.878906 L 352.960938 48.839844 L 353.761719 47.878906 L 354.640625 46.839844 L 355.28125 45.878906 L 356.078125 44.917969 L 356.640625 43.960938 L 357.28125 42.917969 L 357.839844 41.960938 L 358.320313 41 L 358.800781 40.121094 L 359.28125 39.160156 L 359.679688 38.199219 L 360.078125 37.320313 L 360.398438 36.359375 L 360.71875 35.480469 L 361.039063 34.597656 L 361.199219 33.71875 L 361.28125 32.839844 L 361.359375 31.960938 L 361.441406 31.160156 L 361.441406 30.277344 L 361.359375 29.480469 L 361.28125 28.679688 L 361.199219 27.878906 L 361.039063 27.078125 L 360.878906 26.4375 L 360.558594 25.640625 L 360.238281 25 L 359.839844 24.359375 L 359.359375 23.71875 L 358.960938 23.078125 L 358.480469 22.519531 L 357.359375 21.398438 L 356.71875 20.839844 L 356.160156 20.359375 L 354.558594 19.398438 L 353.761719 18.917969 L 352.878906 18.519531 L 352 18.039063 L 351.121094 17.640625 L 350.160156 17.320313 L 349.199219 16.917969 L 348.160156 16.597656 L 346.078125 16.039063 L 343.761719 15.640625 L 341.359375 15.238281 L 338.800781 14.917969 L 336.238281 14.757813 L 330.320313 14.757813 L 327.359375 14.839844 L 324.320313 15.160156 L 321.121094 15.480469 L 317.839844 15.960938 L 314.480469 16.4375 L 311.039063 17 L 307.601563 17.800781 L 303.921875 18.597656 L 300.398438 19.558594 L 296.640625 20.519531 L 292.960938 21.640625 L 289.121094 22.757813 L 285.359375 24.121094 L 281.519531 25.558594 L 277.679688 27.078125 L 273.761719 28.597656 L 269.921875 30.359375 L 266.160156 31.960938 L 262.480469 33.800781 L 255.441406 37.480469 L 252.078125 39.398438 L 248.800781 41.320313 L 245.601563 43.238281 L 242.558594 45.238281 L 239.601563 47.238281 L 236.71875 49.238281 L 234 51.238281 L 231.441406 53.238281 L 228.960938 55.238281 L 226.640625 57.320313 L 224.398438 59.320313 L 223.441406 60.359375 L 222.398438 61.398438 L 221.441406 62.359375 L 220.480469 63.398438 L 219.601563 64.359375 L 218.71875 65.398438 L 217.921875 66.359375 L 217.039063 67.398438 L 216.398438 68.359375 L 215.761719 69.320313 L 215.121094 70.359375 L 214.480469 71.320313 L 213.921875 72.277344 L 213.441406 73.238281 L 212.960938 74.121094 L 212.480469 75.078125 L 212.078125 76.039063 L 211.679688 76.917969 L 211.359375 77.878906 L 211.039063 78.757813 L 210.71875 79.640625 L 210.558594 80.519531 L 210.480469 81.398438 L 210.398438 82.277344 L 210.320313 83.078125 L 210.320313 83.960938 L 210.398438 84.757813 L 210.480469 85.558594 L 210.558594 86.359375 L 210.71875 87.160156 L 210.878906 87.800781 L 211.199219 88.597656 Z M 211.679688 89.238281 "/>
<path style=" stroke:none;fill-rule:nonzero;fill:rgb(0%,0%,0%);fill-opacity:1;" d="M 267.761719 70.519531 C 267.921875 71.078125 268.078125 71.558594 268.078125 72.039063 C 268.078125 72.597656 268 73 267.679688 73.480469 C 267.359375 73.960938 267.121094 74.359375 266.640625 74.597656 C 266.238281 75 265.679688 75.238281 265.121094 75.558594 C 264.71875 75.71875 264.480469 75.878906 264.078125 75.960938 C 263.679688 75.960938 263.441406 76.039063 263.039063 76.039063 C 262.71875 76.121094 262.558594 76.121094 262.238281 76.039063 C 262.078125 76.039063 261.839844 76.039063 261.761719 75.960938 C 261.679688 75.960938 261.601563 75.878906 261.441406 75.800781 C 261.359375 75.71875 261.121094 75.480469 261.039063 75.238281 C 261.039063 75.160156 260.960938 74.917969 260.960938 74.839844 L 260.960938 74.519531 C 260.960938 74.4375 261.039063 74.4375 261.039063 74.4375 C 261.121094 74.359375 261.359375 74.359375 261.519531 74.4375 L 262.320313 74.4375 C 262.640625 74.519531 262.878906 74.519531 263.28125 74.4375 C 263.679688 74.4375 264.078125 74.359375 264.558594 74.121094 C 264.878906 73.960938 265.121094 73.800781 265.441406 73.640625 C 265.601563 73.480469 265.839844 73.238281 265.921875 73.078125 C 266.078125 72.917969 266.078125 72.597656 266.238281 72.277344 C 266.238281 72.121094 266.160156 71.800781 266.078125 71.480469 C 266 71.160156 265.761719 71 265.519531 70.839844 C 265.359375 70.757813 265.039063 70.679688 264.71875 70.679688 C 264.398438 70.597656 264.078125 70.597656 263.679688 70.597656 L 261.519531 70.597656 C 261.121094 70.519531 260.71875 70.4375 260.480469 70.277344 C 260.078125 70.199219 259.839844 69.960938 259.519531 69.71875 C 259.199219 69.398438 258.960938 69.078125 258.71875 68.597656 C 258.558594 68.199219 258.398438 67.800781 258.398438 67.320313 C 258.398438 66.917969 258.558594 66.4375 258.800781 66.039063 C 259.039063 65.640625 259.28125 65.160156 259.679688 64.917969 C 260.078125 64.519531 260.558594 64.121094 261.199219 63.960938 C 261.519531 63.878906 261.761719 63.800781 262.078125 63.640625 C 262.398438 63.480469 262.640625 63.558594 262.960938 63.480469 L 263.601563 63.480469 C 263.761719 63.480469 263.921875 63.558594 264 63.558594 C 264.078125 63.558594 264.160156 63.558594 264.320313 63.640625 C 264.320313 63.640625 264.320313 63.71875 264.398438 63.71875 C 264.398438 63.800781 264.480469 63.800781 264.480469 63.878906 C 264.558594 63.960938 264.558594 64.039063 264.640625 64.199219 C 264.640625 64.359375 264.71875 64.519531 264.71875 64.597656 L 264.71875 65.078125 C 264.71875 65.078125 264.640625 65.078125 264.640625 65.160156 L 264.238281 65.160156 C 264.078125 65.078125 263.839844 65.078125 263.679688 65.078125 L 262.800781 65.078125 C 262.480469 65.160156 262.160156 65.238281 261.761719 65.398438 C 261.441406 65.558594 261.199219 65.71875 260.960938 65.878906 C 260.800781 66.039063 260.558594 66.277344 260.480469 66.4375 C 260.398438 66.597656 260.320313 66.839844 260.320313 67.078125 C 260.320313 67.238281 260.398438 67.480469 260.480469 67.640625 C 260.558594 67.960938 260.800781 68.199219 260.960938 68.277344 C 261.28125 68.4375 261.519531 68.597656 261.839844 68.597656 C 262.160156 68.679688 262.480469 68.679688 262.878906 68.679688 L 263.921875 68.679688 C 264.320313 68.597656 264.71875 68.679688 265.039063 68.679688 C 265.441406 68.679688 265.839844 68.757813 266.160156 68.839844 C 266.480469 69 266.800781 69.238281 267.121094 69.398438 C 267.359375 69.71875 267.519531 70.121094 267.761719 70.519531 Z M 279.039063 62.839844 C 279.359375 63.71875 279.601563 64.597656 279.601563 65.320313 C 279.679688 66.199219 279.601563 66.839844 279.441406 67.640625 C 279.28125 68.277344 278.878906 69 278.320313 69.558594 C 277.761719 70.039063 277.039063 70.519531 276.238281 70.917969 C 275.441406 71.320313 274.640625 71.480469 273.839844 71.480469 C 273.039063 71.480469 272.398438 71.398438 271.839844 71 C 271.199219 70.679688 270.558594 70.359375 270.078125 69.640625 C 269.601563 69.078125 269.121094 68.277344 268.71875 67.398438 C 268.398438 66.519531 268.160156 65.800781 268.160156 64.917969 C 268.078125 64.121094 268.078125 63.398438 268.320313 62.679688 C 268.480469 61.878906 268.878906 61.320313 269.441406 60.757813 C 269.921875 60.199219 270.71875 59.71875 271.519531 59.320313 C 272.398438 59 273.121094 58.839844 273.921875 58.839844 C 274.71875 58.757813 275.359375 58.917969 275.921875 59.238281 C 276.558594 59.558594 277.199219 60.039063 277.679688 60.597656 C 278.160156 61.238281 278.640625 61.960938 279.039063 62.839844 Z M 277.121094 63.800781 C 276.800781 63.320313 276.558594 62.757813 276.238281 62.277344 C 275.921875 61.878906 275.601563 61.480469 275.199219 61.238281 C 274.800781 61 274.320313 60.757813 273.839844 60.757813 C 273.28125 60.757813 272.800781 60.839844 272.078125 61.078125 C 271.519531 61.398438 271.121094 61.640625 270.71875 62.039063 C 270.398438 62.4375 270.238281 62.839844 270.160156 63.320313 C 270 63.800781 270 64.277344 270.078125 64.839844 C 270.160156 65.398438 270.398438 65.960938 270.558594 66.597656 C 270.878906 67.160156 271.121094 67.640625 271.441406 68.121094 C 271.761719 68.597656 272.078125 69 272.480469 69.160156 C 272.878906 69.480469 273.359375 69.640625 273.839844 69.640625 C 274.398438 69.71875 274.878906 69.640625 275.601563 69.320313 C 276.160156 69.160156 276.558594 68.757813 276.960938 68.4375 C 277.28125 68.039063 277.441406 67.558594 277.601563 67.078125 C 277.679688 66.597656 277.679688 66.121094 277.601563 65.558594 C 277.519531 65 277.359375 64.4375 277.121094 63.800781 Z M 286 66.199219 L 286 66.359375 C 286 66.359375 286 66.4375 285.921875 66.519531 L 285.761719 66.679688 C 285.601563 66.679688 285.441406 66.757813 285.28125 66.839844 C 285.121094 66.917969 284.878906 66.917969 284.800781 67 L 284.238281 67 C 284.238281 66.917969 284.238281 66.917969 284.160156 66.839844 L 277.761719 51.480469 C 277.679688 51.398438 277.679688 51.320313 277.679688 51.320313 C 277.679688 51.238281 277.761719 51.238281 277.761719 51.160156 C 277.839844 51.078125 277.921875 51.078125 278.078125 51 C 278.238281 50.917969 278.398438 50.917969 278.558594 50.839844 C 278.71875 50.757813 278.960938 50.679688 279.039063 50.679688 C 279.121094 50.679688 279.199219 50.597656 279.359375 50.597656 C 279.519531 50.597656 279.519531 50.679688 279.519531 50.679688 C 279.601563 50.679688 279.601563 50.757813 279.679688 50.757813 Z M 291.359375 63.878906 C 291.441406 63.960938 291.441406 64.039063 291.441406 64.039063 L 291.28125 64.199219 C 291.28125 64.277344 291.199219 64.277344 291.121094 64.359375 C 291.039063 64.4375 290.800781 64.4375 290.640625 64.519531 C 290.480469 64.597656 290.238281 64.679688 290.160156 64.679688 C 290.078125 64.679688 290 64.757813 289.839844 64.757813 C 289.679688 64.757813 289.679688 64.679688 289.679688 64.679688 C 289.601563 64.679688 289.601563 64.597656 289.519531 64.597656 L 285.199219 54.121094 L 285.199219 54.039063 C 285.199219 53.960938 285.199219 53.960938 285.28125 53.878906 C 285.28125 53.800781 285.359375 53.800781 285.601563 53.71875 C 285.679688 53.640625 285.761719 53.558594 286 53.558594 C 286.160156 53.480469 286.398438 53.398438 286.480469 53.398438 C 286.640625 53.320313 286.800781 53.320313 286.878906 53.320313 C 286.878906 53.320313 286.960938 53.320313 287.039063 53.398438 L 287.121094 53.480469 Z M 285.761719 49.960938 C 285.921875 50.359375 285.921875 50.757813 285.839844 50.917969 C 285.761719 51.238281 285.441406 51.398438 284.960938 51.558594 C 284.558594 51.71875 284.160156 51.71875 284 51.640625 C 283.679688 51.640625 283.519531 51.320313 283.359375 50.839844 C 283.199219 50.4375 283.199219 50.039063 283.28125 49.878906 C 283.359375 49.558594 283.679688 49.398438 284.160156 49.238281 C 284.558594 49.078125 284.960938 49.078125 285.121094 49.078125 C 285.359375 49.160156 285.601563 49.480469 285.761719 49.960938 Z M 303.761719 58.679688 C 303.839844 58.757813 303.839844 58.757813 303.839844 58.839844 C 303.839844 58.839844 303.761719 58.917969 303.761719 59 C 303.679688 59 303.601563 59.078125 303.441406 59.078125 C 303.359375 59.160156 303.28125 59.238281 303.039063 59.238281 C 302.960938 59.320313 302.71875 59.398438 302.640625 59.398438 L 302.160156 59.398438 C 302.078125 59.398438 302.078125 59.320313 302.078125 59.238281 L 301.519531 57.878906 C 301.199219 58.757813 300.878906 59.398438 300.398438 59.960938 C 299.921875 60.519531 299.359375 61 298.640625 61.320313 C 297.839844 61.640625 297.199219 61.71875 296.558594 61.71875 C 295.921875 61.640625 295.28125 61.398438 294.71875 61.078125 C 294.160156 60.679688 293.679688 60.199219 293.199219 59.558594 C 292.800781 59 292.398438 58.277344 292.160156 57.558594 C 291.761719 56.679688 291.519531 55.800781 291.359375 55.078125 C 291.28125 54.199219 291.28125 53.558594 291.441406 52.839844 C 291.601563 52.199219 291.921875 51.558594 292.320313 51 C 292.800781 50.519531 293.359375 50.121094 294.160156 49.878906 C 294.71875 49.558594 295.28125 49.480469 296 49.558594 C 296.558594 49.558594 297.28125 49.71875 297.921875 50.039063 L 295.441406 43.960938 L 295.441406 43.878906 C 295.441406 43.800781 295.441406 43.71875 295.519531 43.71875 C 295.601563 43.640625 295.601563 43.558594 295.839844 43.558594 C 295.921875 43.480469 296 43.398438 296.238281 43.238281 C 296.398438 43.160156 296.640625 43.160156 296.71875 43.160156 C 296.878906 43.078125 297.039063 43.078125 297.121094 43.078125 C 297.121094 43.078125 297.199219 43.078125 297.28125 43.160156 C 297.28125 43.160156 297.359375 43.160156 297.359375 43.238281 Z M 298.71875 52.121094 C 297.921875 51.71875 297.28125 51.480469 296.640625 51.320313 C 296.078125 51.160156 295.519531 51.238281 295.039063 51.398438 C 294.558594 51.558594 294.160156 51.878906 293.921875 52.277344 C 293.761719 52.679688 293.519531 53.078125 293.519531 53.558594 C 293.441406 54.039063 293.441406 54.519531 293.519531 55.078125 L 294 56.519531 C 294.320313 57.078125 294.480469 57.558594 294.800781 58.039063 C 295.121094 58.519531 295.441406 58.917969 295.839844 59.160156 C 296.160156 59.480469 296.480469 59.640625 296.960938 59.71875 C 297.359375 59.800781 297.839844 59.71875 298.320313 59.558594 C 298.640625 59.480469 298.800781 59.398438 299.121094 59.160156 C 299.28125 59 299.519531 58.757813 299.679688 58.519531 C 299.761719 58.199219 300 57.960938 300.160156 57.558594 C 300.320313 57.160156 300.480469 56.757813 300.640625 56.277344 Z M 314.398438 49.558594 C 314.71875 50.199219 314.800781 50.917969 314.800781 51.558594 C 314.800781 52.121094 314.71875 52.839844 314.398438 53.398438 C 314.078125 53.960938 313.601563 54.4375 313.039063 54.917969 C 312.558594 55.480469 311.761719 55.878906 311.039063 56.199219 C 310.558594 56.519531 310 56.597656 309.601563 56.679688 C 309.121094 56.757813 308.640625 56.839844 308.238281 56.839844 C 307.839844 56.917969 307.601563 56.917969 307.28125 56.917969 C 306.960938 56.839844 306.800781 56.839844 306.71875 56.839844 C 306.71875 56.757813 306.640625 56.757813 306.558594 56.757813 C 306.558594 56.679688 306.480469 56.679688 306.480469 56.597656 C 306.398438 56.519531 306.320313 56.4375 306.320313 56.277344 C 306.238281 56.199219 306.238281 56.121094 306.160156 55.878906 C 306.078125 55.558594 306 55.398438 306 55.320313 C 306 55.160156 306.078125 55 306.160156 55 L 306.640625 55 C 306.960938 55 307.199219 55.078125 307.601563 55.078125 C 308 55.078125 308.480469 55 308.960938 55 C 309.441406 54.917969 309.921875 54.839844 310.480469 54.519531 C 310.960938 54.359375 311.441406 54.039063 311.761719 53.71875 C 312.160156 53.398438 312.398438 53.160156 312.558594 52.757813 C 312.71875 52.359375 312.878906 52.121094 312.878906 51.71875 C 312.878906 51.320313 312.800781 50.917969 312.558594 50.597656 C 312.480469 50.121094 312.160156 49.800781 311.921875 49.558594 C 311.519531 49.238281 311.28125 49.078125 310.800781 49 C 310.398438 48.917969 309.921875 48.917969 309.359375 48.917969 C 308.800781 49 308.238281 49.238281 307.601563 49.398438 L 306.160156 50.039063 L 305.679688 50.039063 C 305.679688 49.960938 305.601563 49.878906 305.519531 49.878906 C 305.519531 49.800781 305.441406 49.558594 305.359375 49.480469 C 305.28125 49.320313 305.28125 49.160156 305.28125 49.078125 L 305.28125 48.757813 C 305.28125 48.597656 305.28125 48.597656 305.359375 48.597656 C 305.359375 48.519531 305.441406 48.519531 305.519531 48.519531 L 306.800781 47.960938 C 307.28125 47.800781 307.761719 47.480469 308.160156 47.160156 C 308.480469 46.839844 308.71875 46.519531 308.960938 46.199219 C 309.121094 45.800781 309.28125 45.398438 309.28125 45.078125 C 309.28125 44.597656 309.199219 44.199219 308.960938 43.800781 C 308.878906 43.398438 308.640625 43.238281 308.398438 42.917969 C 308.238281 42.757813 308 42.519531 307.761719 42.359375 C 307.441406 42.277344 307.121094 42.277344 306.71875 42.277344 C 306.398438 42.277344 306.078125 42.359375 305.601563 42.597656 C 305.199219 42.679688 304.800781 43 304.558594 43.238281 C 304.160156 43.558594 303.921875 43.800781 303.679688 44.121094 C 303.519531 44.4375 303.28125 44.597656 303.121094 44.917969 C 303.039063 45.078125 302.960938 45.238281 302.800781 45.238281 C 302.71875 45.320313 302.71875 45.320313 302.640625 45.320313 C 302.640625 45.320313 302.558594 45.320313 302.558594 45.238281 C 302.480469 45.238281 302.480469 45.160156 302.398438 45.078125 C 302.398438 45 302.320313 44.757813 302.238281 44.679688 C 302.238281 44.519531 302.160156 44.359375 302.160156 44.277344 C 302.160156 44.199219 302.078125 44.199219 302.078125 44.121094 L 302.078125 43.960938 C 302.160156 43.878906 302.160156 43.800781 302.160156 43.640625 C 302.238281 43.558594 302.320313 43.320313 302.558594 43.160156 C 302.640625 42.839844 302.878906 42.679688 303.121094 42.359375 C 303.441406 42.039063 303.761719 41.800781 304.160156 41.480469 C 304.558594 41.160156 304.960938 41 305.441406 40.839844 C 306.238281 40.519531 306.800781 40.359375 307.359375 40.359375 C 308 40.277344 308.480469 40.359375 308.960938 40.519531 C 309.441406 40.597656 309.921875 40.917969 310.320313 41.320313 C 310.640625 41.71875 310.960938 42.199219 311.199219 42.757813 C 311.359375 43.238281 311.519531 43.640625 311.601563 44.121094 C 311.601563 44.597656 311.601563 45 311.519531 45.480469 C 311.441406 45.878906 311.199219 46.277344 310.960938 46.597656 C 310.800781 47 310.398438 47.238281 310 47.558594 C 310.480469 47.398438 311.039063 47.398438 311.519531 47.398438 C 312.078125 47.398438 312.480469 47.480469 312.960938 47.71875 C 313.441406 47.878906 313.839844 48.199219 314.078125 48.519531 C 313.921875 48.679688 314.160156 49.078125 314.398438 49.558594 Z M 314.398438 49.558594 "/>
<path style=" stroke:none;fill-rule:evenodd;fill:rgb(0%,0%,0%);fill-opacity:1;" d="M 123.921875 23.480469 C 123.921875 18.519531 127.921875 14.4375 132.960938 14.4375 C 138.078125 14.4375 142.078125 18.4375 142.078125 23.480469 C 142.078125 28.519531 138.078125 32.597656 132.960938 32.597656 C 127.921875 32.597656 123.921875 28.4375 123.921875 23.480469 Z M 123.921875 23.480469 "/>
<path style=" stroke:none;fill-rule:nonzero;fill:rgb(0%,0%,0%);fill-opacity:1;" d="M 123.121094 23.558594 L 123.121094 22.519531 L 123.441406 20.597656 L 124.238281 18.839844 L 124.71875 17.960938 L 125.28125 17.160156 L 125.921875 16.519531 L 126.558594 15.878906 L 127.359375 15.320313 L 128.160156 14.839844 L 129.039063 14.4375 L 130 14.039063 L 130.878906 13.878906 L 131.921875 13.71875 L 132.878906 13.640625 L 133.921875 13.71875 L 134.878906 13.800781 L 135.839844 14.121094 L 136.71875 14.4375 L 137.601563 14.917969 L 138.480469 15.398438 L 139.28125 15.960938 L 139.921875 16.519531 L 140.558594 17.160156 L 141.121094 17.960938 L 141.601563 18.839844 L 142.398438 20.597656 L 142.71875 22.519531 L 142.71875 24.519531 L 142.558594 25.558594 L 142.398438 26.4375 L 142 27.398438 L 141.601563 28.277344 L 141.121094 29.078125 L 140.558594 29.878906 L 140 30.679688 L 139.199219 31.238281 L 138.398438 31.800781 L 137.601563 32.277344 L 136.71875 32.757813 L 135.839844 33.078125 L 134.878906 33.398438 L 133.839844 33.480469 L 132.878906 33.558594 L 131.839844 33.558594 L 130.878906 33.398438 L 129.921875 33.238281 L 129.039063 32.839844 L 128.160156 32.4375 L 127.28125 31.960938 L 126.480469 31.398438 L 125.839844 30.757813 L 125.199219 30.121094 L 124.640625 29.320313 L 124.160156 28.519531 L 123.761719 27.640625 L 123.359375 26.679688 L 123.039063 24.757813 L 123.039063 23.558594 Z M 124.800781 24.277344 L 124.878906 25.078125 L 125.039063 25.878906 L 125.359375 26.679688 L 125.761719 27.480469 L 126.160156 28.121094 L 126.640625 28.757813 L 127.121094 29.320313 L 127.679688 29.800781 L 128.320313 30.277344 L 128.960938 30.757813 L 129.761719 31.078125 L 130.398438 31.398438 L 131.28125 31.71875 L 132.078125 31.800781 L 133.839844 31.800781 L 134.71875 31.71875 L 135.519531 31.558594 L 136.320313 31.238281 L 136.960938 30.839844 L 137.601563 30.4375 L 138.238281 29.960938 L 139.359375 28.839844 L 139.839844 28.277344 L 140.238281 27.640625 L 140.640625 26.839844 L 140.960938 26.039063 L 141.121094 25.238281 L 141.199219 24.359375 L 141.28125 23.558594 L 141.199219 22.679688 L 141.121094 21.800781 L 140.960938 21 L 140.640625 20.199219 L 140.238281 19.398438 L 139.839844 18.757813 L 138.878906 17.640625 L 138.320313 17.078125 L 137.679688 16.597656 L 136.398438 15.800781 L 135.601563 15.480469 L 134.71875 15.320313 L 133.921875 15.238281 L 133.039063 15.160156 L 132.160156 15.238281 L 131.359375 15.320313 L 130.480469 15.480469 L 129.679688 15.800781 L 129.039063 16.121094 L 128.398438 16.597656 L 127.761719 17.078125 L 127.199219 17.558594 L 126.640625 18.121094 L 126.160156 18.757813 L 125.761719 19.398438 L 125.359375 20.039063 L 125.039063 20.839844 L 124.878906 21.640625 L 124.800781 22.519531 L 124.71875 23.398438 Z M 124.800781 24.277344 "/>
<path style=" stroke:none;fill-rule:evenodd;fill:rgb(0%,0%,0%);fill-opacity:1;" d="M 223.679688 77.878906 C 223.679688 72.917969 227.839844 68.839844 232.800781 68.839844 C 237.761719 68.839844 241.839844 72.839844 241.839844 77.878906 C 241.839844 82.839844 237.839844 87 232.800781 87 C 227.761719 87 223.679688 82.839844 223.679688 77.878906 Z M 223.679688 77.878906 "/>
<path style=" stroke:none;fill-rule:nonzero;fill:rgb(0%,0%,0%);fill-opacity:1;" d="M 222.878906 77.960938 L 222.960938 76.917969 L 223.039063 75.960938 L 223.359375 75 L 223.679688 74.121094 L 224.078125 73.238281 L 224.558594 72.359375 L 225.121094 71.558594 L 225.761719 70.917969 L 226.398438 70.277344 L 227.199219 69.71875 L 228.078125 69.238281 L 228.960938 68.839844 L 229.839844 68.4375 L 230.800781 68.277344 L 231.761719 68.121094 L 232.800781 68.039063 L 233.761719 68.121094 L 234.71875 68.199219 L 236.640625 68.839844 L 237.519531 69.320313 L 238.320313 69.800781 L 239.121094 70.359375 L 239.761719 70.917969 L 240.398438 71.558594 L 240.960938 72.359375 L 241.441406 73.238281 L 241.921875 74.121094 L 242.238281 75 L 242.558594 75.960938 L 242.640625 76.917969 L 242.71875 77.960938 L 242.640625 78.917969 L 242.558594 79.960938 L 242.238281 80.839844 L 241.921875 81.800781 L 241.519531 82.679688 L 240.960938 83.480469 L 240.480469 84.277344 L 239.839844 85.078125 L 239.199219 85.640625 L 238.398438 86.199219 L 236.640625 87.160156 L 235.761719 87.480469 L 234.800781 87.800781 L 233.839844 87.878906 L 232.800781 87.960938 L 231.839844 87.960938 L 230.878906 87.800781 L 229.921875 87.640625 L 228.960938 87.238281 L 228.078125 86.839844 L 227.28125 86.359375 L 226.480469 85.800781 L 225.199219 84.519531 L 224.640625 83.71875 L 224.160156 82.917969 L 223.679688 82.039063 L 223.359375 81.078125 L 223.039063 80.121094 L 222.960938 79.160156 Z M 224.558594 78.757813 L 224.640625 79.558594 L 224.960938 80.359375 L 225.121094 81.160156 L 225.519531 81.960938 L 225.921875 82.597656 L 226.320313 83.160156 L 226.878906 83.71875 L 227.441406 84.199219 L 228.078125 84.679688 L 228.640625 85.160156 L 229.441406 85.480469 L 230.238281 85.800781 L 231.039063 86.121094 L 231.921875 86.199219 L 233.601563 86.199219 L 234.480469 86.121094 L 235.28125 85.960938 L 236.078125 85.640625 L 236.878906 85.238281 L 237.519531 84.839844 L 238.078125 84.359375 L 238.71875 83.800781 L 239.199219 83.238281 L 239.679688 82.679688 L 240.160156 82.039063 L 240.800781 80.4375 L 240.960938 79.640625 L 241.121094 78.757813 L 241.121094 77.078125 L 240.960938 76.199219 L 240.640625 74.597656 L 240.238281 73.800781 L 239.839844 73.160156 L 239.359375 72.597656 L 238.800781 72.039063 L 238.238281 71.480469 L 237.601563 71 L 236.960938 70.597656 L 236.320313 70.199219 L 235.519531 69.878906 L 234.71875 69.71875 L 233.839844 69.640625 L 232.960938 69.558594 L 232.160156 69.558594 L 231.28125 69.71875 L 230.480469 69.878906 L 228.878906 70.519531 L 228.238281 71 L 227.601563 71.398438 L 227.039063 71.960938 L 226.558594 72.519531 L 226.078125 73.160156 L 225.601563 73.800781 L 225.28125 74.4375 L 224.960938 75.238281 L 224.800781 76.039063 L 224.640625 76.917969 L 224.640625 78.757813 Z M 224.558594 78.757813 "/>
<path style=" stroke:none;fill-rule:nonzero;fill:rgb(0%,0%,0%);fill-opacity:1;" d="M 91.921875 98.839844 C 91.921875 99.480469 91.839844 99.960938 91.761719 100.359375 C 91.679688 100.757813 91.519531 101.078125 91.28125 101.320313 C 91.121094 101.558594 90.800781 101.800781 90.480469 101.960938 C 90.160156 102.121094 89.761719 102.199219 89.359375 102.199219 L 88.878906 102.199219 C 88.71875 102.199219 88.640625 102.121094 88.558594 102.121094 C 88.480469 102.121094 88.398438 102.039063 88.398438 102.039063 C 88.398438 102.039063 88.320313 101.960938 88.320313 101.878906 L 88.320313 101 C 88.320313 100.917969 88.398438 100.917969 88.398438 100.917969 L 89.121094 100.917969 C 89.359375 100.917969 89.519531 100.917969 89.679688 100.839844 C 89.839844 100.757813 89.921875 100.679688 90.078125 100.519531 C 90.160156 100.359375 90.238281 100.199219 90.320313 99.960938 C 90.398438 99.71875 90.398438 99.398438 90.398438 98.917969 L 90.398438 89.878906 C 90.398438 89.878906 90.480469 89.800781 90.558594 89.800781 C 90.640625 89.800781 90.71875 89.800781 90.800781 89.71875 L 91.601563 89.71875 C 91.679688 89.71875 91.761719 89.71875 91.839844 89.800781 C 91.921875 89.800781 91.921875 89.878906 92 89.878906 L 92 98.839844 Z M 92.160156 87.160156 C 92.160156 87.558594 92.078125 87.800781 91.921875 87.878906 C 91.761719 87.960938 91.519531 88.039063 91.121094 88.039063 C 90.800781 88.039063 90.480469 87.960938 90.398438 87.878906 C 90.238281 87.71875 90.238281 87.480469 90.238281 87.160156 C 90.238281 86.839844 90.320313 86.597656 90.398438 86.4375 C 90.558594 86.277344 90.800781 86.277344 91.121094 86.277344 C 91.441406 86.277344 91.761719 86.359375 91.839844 86.4375 C 92.078125 86.519531 92.160156 86.757813 92.160156 87.160156 Z M 102.71875 94.121094 C 102.71875 94.839844 102.640625 95.480469 102.480469 96.039063 C 102.320313 96.597656 102 97.160156 101.679688 97.558594 C 101.359375 97.960938 100.878906 98.277344 100.320313 98.519531 C 99.761719 98.757813 99.121094 98.839844 98.480469 98.839844 C 97.761719 98.839844 97.199219 98.757813 96.640625 98.519531 C 96.078125 98.277344 95.679688 98.039063 95.359375 97.640625 C 95.039063 97.238281 94.71875 96.757813 94.558594 96.199219 C 94.398438 95.640625 94.320313 95 94.320313 94.277344 C 94.320313 93.558594 94.398438 92.917969 94.558594 92.359375 C 94.71875 91.800781 95.039063 91.320313 95.359375 90.839844 C 95.679688 90.4375 96.160156 90.121094 96.71875 89.878906 C 97.28125 89.640625 97.921875 89.558594 98.640625 89.558594 C 99.359375 89.558594 99.921875 89.640625 100.480469 89.878906 C 100.960938 90.121094 101.441406 90.359375 101.761719 90.757813 C 102.078125 91.160156 102.398438 91.640625 102.558594 92.199219 C 102.640625 92.839844 102.71875 93.480469 102.71875 94.121094 Z M 101.039063 94.199219 C 101.039063 93.71875 101.039063 93.320313 100.878906 92.917969 C 100.800781 92.519531 100.640625 92.199219 100.480469 91.878906 C 100.320313 91.558594 100 91.320313 99.679688 91.160156 C 99.359375 91 98.960938 90.917969 98.480469 90.839844 C 98 90.839844 97.601563 90.917969 97.28125 91.078125 C 96.960938 91.238281 96.71875 91.480469 96.480469 91.800781 C 96.238281 92.121094 96.078125 92.4375 96 92.839844 C 95.921875 93.238281 95.839844 93.71875 95.839844 94.199219 C 95.839844 94.679688 95.921875 95.078125 96 95.558594 C 96.078125 95.960938 96.238281 96.359375 96.398438 96.597656 C 96.558594 96.917969 96.878906 97.160156 97.199219 97.320313 C 97.519531 97.480469 97.921875 97.558594 98.398438 97.558594 C 98.878906 97.558594 99.28125 97.480469 99.601563 97.320313 C 99.921875 97.160156 100.238281 96.917969 100.398438 96.597656 C 100.558594 96.277344 100.800781 95.960938 100.878906 95.558594 C 101.039063 95.160156 101.039063 94.679688 101.039063 94.199219 Z M 106.480469 98.519531 L 106.480469 98.679688 C 106.480469 98.679688 106.398438 98.757813 106.320313 98.757813 C 106.238281 98.757813 106.160156 98.757813 106.078125 98.839844 L 105.28125 98.839844 C 105.199219 98.839844 105.121094 98.839844 105.039063 98.757813 C 104.960938 98.757813 104.960938 98.679688 104.878906 98.679688 L 104.878906 89.800781 C 104.878906 89.800781 104.960938 89.71875 105.039063 89.71875 C 105.121094 89.71875 105.199219 89.71875 105.28125 89.640625 L 106.078125 89.640625 C 106.160156 89.640625 106.238281 89.640625 106.320313 89.71875 C 106.398438 89.71875 106.398438 89.800781 106.480469 89.800781 Z M 106.640625 87.160156 C 106.640625 87.558594 106.558594 87.800781 106.398438 87.878906 C 106.238281 87.960938 106 88.039063 105.601563 88.039063 C 105.28125 88.039063 104.960938 87.960938 104.878906 87.878906 C 104.71875 87.71875 104.640625 87.480469 104.640625 87.160156 C 104.640625 86.839844 104.71875 86.597656 104.878906 86.4375 C 105.039063 86.277344 105.28125 86.277344 105.601563 86.277344 C 105.921875 86.277344 106.238281 86.359375 106.320313 86.4375 C 106.558594 86.519531 106.640625 86.757813 106.640625 87.160156 Z M 116.640625 98.519531 L 116.640625 98.679688 C 116.640625 98.679688 116.558594 98.757813 116.480469 98.757813 C 116.398438 98.757813 116.320313 98.757813 116.238281 98.839844 L 115.441406 98.839844 C 115.359375 98.839844 115.28125 98.839844 115.199219 98.757813 C 115.121094 98.757813 115.121094 98.679688 115.039063 98.679688 L 115.039063 93.558594 C 115.039063 93.078125 115.039063 92.679688 114.960938 92.359375 C 114.878906 92.039063 114.800781 91.800781 114.640625 91.558594 C 114.480469 91.320313 114.320313 91.160156 114.078125 91.078125 C 113.839844 91 113.601563 90.917969 113.28125 90.917969 C 112.878906 90.917969 112.480469 91.078125 112.078125 91.320313 C 111.679688 91.640625 111.28125 92.039063 110.878906 92.519531 L 110.878906 98.597656 C 110.878906 98.597656 110.800781 98.679688 110.71875 98.679688 C 110.640625 98.679688 110.558594 98.679688 110.480469 98.757813 L 109.679688 98.757813 C 109.601563 98.757813 109.519531 98.757813 109.441406 98.679688 C 109.359375 98.679688 109.359375 98.597656 109.28125 98.597656 L 109.28125 89.71875 C 109.28125 89.640625 109.359375 89.640625 109.359375 89.640625 C 109.441406 89.640625 109.519531 89.558594 109.601563 89.558594 L 110.238281 89.558594 C 110.320313 89.558594 110.398438 89.558594 110.480469 89.640625 L 110.558594 89.71875 L 110.558594 91 C 111.039063 90.519531 111.519531 90.121094 112 89.878906 C 112.480469 89.640625 112.960938 89.480469 113.441406 89.480469 C 114 89.480469 114.480469 89.558594 114.878906 89.800781 C 115.28125 89.960938 115.601563 90.277344 115.839844 90.597656 C 116.078125 90.917969 116.238281 91.320313 116.320313 91.71875 C 116.398438 92.199219 116.480469 92.679688 116.480469 93.238281 L 116.480469 98.519531 Z M 123.839844 97.878906 L 123.839844 98.359375 C 123.839844 98.4375 123.761719 98.519531 123.761719 98.597656 C 123.679688 98.679688 123.601563 98.679688 123.519531 98.757813 C 123.441406 98.839844 123.28125 98.839844 123.199219 98.839844 C 123.039063 98.839844 122.960938 98.917969 122.800781 98.917969 L 122.398438 98.917969 C 122 98.917969 121.601563 98.839844 121.28125 98.757813 C 120.960938 98.679688 120.71875 98.4375 120.480469 98.199219 C 120.320313 97.960938 120.160156 97.640625 120.078125 97.320313 C 120 97 119.921875 96.519531 119.921875 96.039063 L 119.921875 91.078125 L 118.71875 91.078125 C 118.640625 91.078125 118.558594 91 118.480469 90.917969 C 118.398438 90.839844 118.398438 90.679688 118.398438 90.4375 L 118.398438 90.121094 C 118.398438 90.039063 118.480469 89.960938 118.480469 89.960938 C 118.480469 89.878906 118.558594 89.878906 118.558594 89.878906 L 119.921875 89.878906 L 119.921875 87.800781 C 119.921875 87.800781 120 87.71875 120.078125 87.71875 C 120.160156 87.71875 120.238281 87.640625 120.320313 87.640625 L 121.121094 87.640625 C 121.199219 87.640625 121.28125 87.640625 121.359375 87.71875 C 121.441406 87.71875 121.441406 87.800781 121.519531 87.800781 L 121.519531 89.878906 L 123.839844 89.878906 L 123.921875 89.960938 L 124 90.121094 L 124 90.4375 C 124 90.679688 124 90.839844 123.921875 90.917969 C 123.839844 91 123.761719 91.078125 123.679688 91.078125 L 121.519531 91.078125 L 121.519531 95.800781 C 121.519531 96.359375 121.601563 96.839844 121.761719 97.160156 C 121.921875 97.480469 122.238281 97.640625 122.71875 97.640625 L 123.121094 97.640625 C 123.199219 97.640625 123.359375 97.558594 123.441406 97.558594 C 123.519531 97.558594 123.601563 97.480469 123.679688 97.480469 C 123.761719 97.480469 123.839844 97.398438 123.839844 97.398438 L 123.921875 97.398438 L 124 97.480469 C 124 97.480469 124 97.558594 124.078125 97.640625 C 123.839844 97.640625 123.839844 97.800781 123.839844 97.878906 Z M 133.039063 98.121094 L 133.039063 98.4375 C 133.039063 98.519531 133.039063 98.597656 132.960938 98.597656 C 132.960938 98.679688 132.878906 98.679688 132.878906 98.679688 L 126.238281 98.679688 L 126.160156 98.597656 C 126.160156 98.519531 126.078125 98.519531 126.078125 98.4375 L 126.078125 97.800781 C 126.078125 97.71875 126.160156 97.640625 126.160156 97.640625 C 126.160156 97.558594 126.238281 97.558594 126.238281 97.480469 C 126.238281 97.480469 126.320313 97.480469 126.398438 97.398438 L 128.960938 97.398438 L 128.960938 88.199219 L 126.640625 89.640625 C 126.480469 89.71875 126.398438 89.71875 126.320313 89.800781 L 126.160156 89.800781 C 126.160156 89.800781 126.078125 89.71875 126.078125 89.558594 L 126.078125 88.917969 C 126.078125 88.839844 126.078125 88.757813 126.160156 88.757813 C 126.160156 88.679688 126.238281 88.679688 126.238281 88.597656 C 126.238281 88.597656 126.320313 88.519531 126.398438 88.519531 L 129.199219 86.679688 C 129.199219 86.679688 129.28125 86.679688 129.28125 86.597656 L 130.320313 86.597656 C 130.398438 86.597656 130.480469 86.597656 130.558594 86.679688 L 130.640625 86.757813 L 130.640625 97.480469 L 132.800781 97.480469 C 132.878906 97.480469 132.878906 97.480469 132.960938 97.558594 C 133.039063 97.640625 133.039063 97.640625 133.039063 97.71875 C 133.039063 97.800781 133.121094 97.878906 133.121094 97.878906 C 133.039063 97.878906 133.039063 97.960938 133.039063 98.121094 Z M 133.039063 98.121094 "/>
<path style=" stroke:none;fill-rule:nonzero;fill:rgb(0%,0%,0%);fill-opacity:1;" d="M 243.839844 21.878906 L 232.238281 66.199219 L 234.558594 66.757813 L 246.160156 22.4375 Z M 230 58.757813 L 232.800781 68.839844 L 240.078125 61.480469 C 240.558594 61 240.558594 60.199219 240.078125 59.71875 C 239.679688 59.320313 238.960938 59.320313 238.480469 59.71875 L 232.558594 65.640625 L 234.558594 66.121094 L 232.320313 58.121094 C 232.160156 57.480469 231.441406 57.078125 230.878906 57.238281 C 230.160156 57.558594 229.839844 58.199219 230 58.757813 Z M 230 58.757813 "/>
<path style=" stroke:none;fill-rule:nonzero;fill:rgb(0%,0%,0%);fill-opacity:1;" d="M 225.28125 13.960938 C 225.28125 14.597656 225.199219 15.078125 225.121094 15.480469 C 225.039063 15.878906 224.878906 16.199219 224.640625 16.4375 C 224.480469 16.679688 224.160156 16.917969 223.839844 17.078125 C 223.519531 17.238281 223.121094 17.320313 222.71875 17.320313 L 222.238281 17.320313 C 222.078125 17.320313 222 17.238281 221.921875 17.238281 C 221.839844 17.238281 221.761719 17.160156 221.761719 17.160156 C 221.761719 17.160156 221.679688 17.078125 221.679688 17 L 221.679688 16.121094 C 221.679688 16.039063 221.761719 16.039063 221.761719 16.039063 L 222.480469 16.039063 C 222.71875 16.039063 222.878906 16.039063 223.039063 15.960938 C 223.199219 15.878906 223.28125 15.800781 223.441406 15.640625 C 223.519531 15.480469 223.601563 15.320313 223.679688 15.078125 C 223.761719 14.839844 223.761719 14.519531 223.761719 14.039063 L 223.761719 5 C 223.761719 5 223.839844 4.917969 223.921875 4.917969 C 224 4.917969 224.078125 4.917969 224.160156 4.839844 L 224.960938 4.839844 C 225.039063 4.839844 225.121094 4.839844 225.199219 4.917969 C 225.28125 4.917969 225.28125 5 225.359375 5 L 225.359375 13.960938 Z M 225.519531 2.277344 C 225.519531 2.679688 225.441406 2.917969 225.28125 3 C 225.121094 3.078125 224.878906 3.160156 224.480469 3.160156 C 224.160156 3.160156 223.839844 3.078125 223.761719 3 C 223.601563 2.839844 223.601563 2.597656 223.601563 2.277344 C 223.601563 1.960938 223.679688 1.71875 223.761719 1.558594 C 223.921875 1.398438 224.160156 1.398438 224.480469 1.398438 C 224.800781 1.398438 225.121094 1.480469 225.199219 1.558594 C 225.441406 1.71875 225.519531 1.960938 225.519531 2.277344 Z M 236.078125 9.320313 C 236.078125 10.039063 236 10.679688 235.839844 11.238281 C 235.679688 11.800781 235.359375 12.359375 235.039063 12.757813 C 234.71875 13.160156 234.238281 13.480469 233.679688 13.71875 C 233.121094 13.960938 232.480469 14.039063 231.839844 14.039063 C 231.121094 14.039063 230.558594 13.960938 230 13.71875 C 229.441406 13.480469 229.039063 13.238281 228.71875 12.839844 C 228.398438 12.4375 228.078125 11.960938 227.921875 11.398438 C 227.761719 10.839844 227.679688 10.199219 227.679688 9.480469 C 227.679688 8.757813 227.761719 8.121094 227.921875 7.558594 C 228.078125 7 228.398438 6.519531 228.71875 6.039063 C 229.039063 5.640625 229.519531 5.320313 230.078125 5.078125 C 230.640625 4.839844 231.28125 4.757813 232 4.757813 C 232.71875 4.757813 233.28125 4.839844 233.839844 5.078125 C 234.320313 5.320313 234.800781 5.558594 235.121094 5.960938 C 235.441406 6.359375 235.761719 6.839844 235.921875 7.398438 C 236 7.960938 236.078125 8.597656 236.078125 9.320313 Z M 234.398438 9.320313 C 234.398438 8.839844 234.398438 8.4375 234.238281 8.039063 C 234.160156 7.640625 234 7.320313 233.839844 7 C 233.679688 6.679688 233.359375 6.4375 233.039063 6.277344 C 232.71875 6.121094 232.320313 6.039063 231.839844 5.960938 C 231.359375 5.960938 230.960938 6.039063 230.640625 6.199219 C 230.320313 6.359375 230.078125 6.597656 229.839844 6.917969 C 229.601563 7.238281 229.441406 7.558594 229.359375 7.960938 C 229.28125 8.359375 229.199219 8.839844 229.199219 9.320313 C 229.199219 9.800781 229.28125 10.199219 229.359375 10.679688 C 229.441406 11.078125 229.601563 11.480469 229.761719 11.71875 C 229.921875 12.039063 230.238281 12.277344 230.558594 12.4375 C 230.878906 12.597656 231.28125 12.679688 231.761719 12.679688 C 232.238281 12.679688 232.640625 12.597656 232.960938 12.4375 C 233.28125 12.277344 233.601563 12.039063 233.761719 11.71875 C 233.921875 11.398438 234.160156 11.078125 234.238281 10.679688 C 234.398438 10.277344 234.398438 9.878906 234.398438 9.320313 Z M 239.761719 13.640625 L 239.761719 13.800781 C 239.761719 13.800781 239.679688 13.878906 239.601563 13.878906 C 239.519531 13.878906 239.441406 13.878906 239.359375 13.960938 L 238.558594 13.960938 C 238.480469 13.960938 238.398438 13.960938 238.320313 13.878906 C 238.238281 13.878906 238.238281 13.800781 238.160156 13.800781 L 238.160156 4.917969 C 238.160156 4.917969 238.238281 4.839844 238.320313 4.839844 C 238.398438 4.839844 238.480469 4.839844 238.558594 4.757813 L 239.359375 4.757813 C 239.441406 4.757813 239.519531 4.757813 239.601563 4.839844 C 239.679688 4.839844 239.679688 4.917969 239.761719 4.917969 Z M 240 2.277344 C 240 2.679688 239.921875 2.917969 239.761719 3 C 239.601563 3.078125 239.359375 3.160156 238.960938 3.160156 C 238.640625 3.160156 238.320313 3.078125 238.238281 3 C 238.078125 2.839844 238 2.597656 238 2.277344 C 238 1.960938 238.078125 1.71875 238.238281 1.558594 C 238.398438 1.398438 238.640625 1.398438 238.960938 1.398438 C 239.28125 1.398438 239.601563 1.480469 239.679688 1.558594 C 239.921875 1.71875 240 1.960938 240 2.277344 Z M 250 13.640625 L 250 13.800781 C 250 13.800781 249.921875 13.878906 249.839844 13.878906 C 249.761719 13.878906 249.679688 13.878906 249.601563 13.960938 L 248.800781 13.960938 C 248.71875 13.960938 248.640625 13.960938 248.558594 13.878906 C 248.480469 13.878906 248.480469 13.800781 248.398438 13.800781 L 248.398438 8.679688 C 248.398438 8.199219 248.398438 7.800781 248.320313 7.480469 C 248.238281 7.160156 248.160156 6.917969 248 6.679688 C 247.839844 6.4375 247.679688 6.277344 247.441406 6.199219 C 247.199219 6.121094 246.960938 6.039063 246.640625 6.039063 C 246.238281 6.039063 245.839844 6.199219 245.441406 6.4375 C 245.039063 6.757813 244.640625 7.160156 244.238281 7.640625 L 244.238281 13.71875 C 244.238281 13.71875 244.160156 13.800781 244.078125 13.800781 C 244 13.800781 243.921875 13.800781 243.839844 13.878906 L 243.039063 13.878906 C 242.960938 13.878906 242.878906 13.878906 242.800781 13.800781 C 242.71875 13.800781 242.71875 13.71875 242.640625 13.71875 L 242.640625 4.839844 C 242.640625 4.757813 242.71875 4.757813 242.71875 4.757813 C 242.800781 4.757813 242.878906 4.679688 242.960938 4.679688 L 243.601563 4.679688 C 243.679688 4.679688 243.761719 4.679688 243.839844 4.757813 L 243.921875 4.839844 L 243.921875 6.121094 C 244.398438 5.640625 244.878906 5.238281 245.359375 5 C 245.839844 4.757813 246.320313 4.597656 246.800781 4.597656 C 247.359375 4.597656 247.839844 4.679688 248.238281 4.917969 C 248.640625 5.078125 248.960938 5.398438 249.199219 5.71875 C 249.441406 6.039063 249.601563 6.4375 249.679688 6.839844 C 249.761719 7.320313 249.839844 7.800781 249.839844 8.359375 L 249.839844 13.640625 Z M 257.199219 13 L 257.199219 13.480469 C 257.199219 13.558594 257.121094 13.640625 257.121094 13.71875 C 257.039063 13.800781 256.960938 13.800781 256.878906 13.878906 C 256.800781 13.960938 256.640625 13.960938 256.558594 13.960938 C 256.398438 13.960938 256.320313 14.039063 256.160156 14.039063 L 255.761719 14.039063 C 255.359375 14.039063 254.960938 13.960938 254.640625 13.878906 C 254.320313 13.800781 254.078125 13.558594 253.839844 13.320313 C 253.679688 13.078125 253.519531 12.757813 253.441406 12.4375 C 253.359375 12.121094 253.28125 11.640625 253.28125 11.160156 L 253.28125 6.199219 L 251.921875 6.199219 C 251.839844 6.199219 251.761719 6.121094 251.679688 6.039063 C 251.601563 5.960938 251.601563 5.800781 251.601563 5.558594 L 251.601563 5.238281 C 251.601563 5.160156 251.679688 5.078125 251.679688 5.078125 C 251.679688 5 251.761719 5 251.761719 5 L 253.121094 5 L 253.121094 2.917969 C 253.121094 2.917969 253.199219 2.839844 253.28125 2.839844 C 253.359375 2.839844 253.441406 2.757813 253.519531 2.757813 L 254.320313 2.757813 C 254.398438 2.757813 254.480469 2.757813 254.558594 2.839844 C 254.640625 2.839844 254.640625 2.917969 254.71875 2.917969 L 254.71875 5 L 257.039063 5 L 257.121094 5.078125 L 257.199219 5.238281 L 257.199219 5.558594 C 257.199219 5.800781 257.199219 5.960938 257.121094 6.039063 C 257.039063 6.121094 256.960938 6.199219 256.878906 6.199219 L 254.71875 6.199219 L 254.71875 10.917969 C 254.71875 11.480469 254.800781 11.960938 254.960938 12.277344 C 255.121094 12.597656 255.441406 12.757813 255.921875 12.757813 L 256.320313 12.757813 C 256.398438 12.757813 256.558594 12.679688 256.640625 12.679688 C 256.71875 12.679688 256.800781 12.597656 256.878906 12.597656 C 256.960938 12.597656 257.039063 12.519531 257.039063 12.519531 L 257.121094 12.519531 L 257.199219 12.597656 C 257.199219 12.597656 257.199219 12.679688 257.28125 12.757813 C 257.199219 12.839844 257.199219 12.917969 257.199219 13 Z M 266.398438 13.160156 L 266.398438 13.480469 C 266.398438 13.558594 266.398438 13.640625 266.320313 13.71875 C 266.320313 13.800781 266.238281 13.800781 266.238281 13.878906 L 259.121094 13.878906 C 259.039063 13.878906 259.039063 13.800781 258.960938 13.800781 C 258.878906 13.71875 258.878906 13.71875 258.878906 13.558594 L 258.878906 12.917969 C 258.878906 12.839844 258.878906 12.757813 258.960938 12.679688 C 258.960938 12.597656 259.039063 12.519531 259.121094 12.4375 C 259.199219 12.359375 259.199219 12.277344 259.28125 12.199219 L 261.679688 9.71875 C 262.238281 9.160156 262.71875 8.597656 263.039063 8.199219 C 263.359375 7.71875 263.679688 7.320313 263.839844 6.917969 C 264 6.519531 264.160156 6.199219 264.238281 5.878906 C 264.320313 5.558594 264.320313 5.238281 264.320313 5 C 264.320313 4.757813 264.320313 4.519531 264.160156 4.277344 C 264.078125 4.039063 263.921875 3.800781 263.761719 3.640625 C 263.601563 3.480469 263.359375 3.320313 263.121094 3.238281 C 262.878906 3.160156 262.558594 3.078125 262.238281 3.078125 C 261.839844 3.078125 261.519531 3.160156 261.199219 3.238281 C 260.878906 3.398438 260.640625 3.480469 260.398438 3.640625 C 260.160156 3.800781 260 3.878906 259.839844 3.960938 C 259.679688 4.039063 259.601563 4.121094 259.519531 4.121094 L 259.359375 4.121094 C 259.359375 4.121094 259.28125 4.039063 259.28125 3.960938 C 259.28125 3.878906 259.199219 3.800781 259.199219 3.71875 L 259.199219 3 C 259.199219 2.917969 259.199219 2.917969 259.28125 2.839844 L 259.441406 2.679688 C 259.519531 2.597656 259.679688 2.519531 259.839844 2.4375 C 260 2.359375 260.238281 2.199219 260.558594 2.121094 C 260.800781 2.039063 261.121094 1.878906 261.441406 1.800781 C 261.761719 1.71875 262.160156 1.71875 262.480469 1.640625 C 263.039063 1.640625 263.601563 1.71875 264 1.878906 C 264.480469 2.039063 264.800781 2.277344 265.121094 2.597656 C 265.441406 2.917969 265.601563 3.238281 265.761719 3.640625 C 265.921875 4.039063 266 4.4375 266 4.839844 C 266 5.238281 266 5.640625 265.921875 6.039063 C 265.839844 6.4375 265.679688 6.839844 265.519531 7.320313 C 265.28125 7.800781 264.960938 8.277344 264.558594 8.839844 C 264.160156 9.398438 263.601563 10.039063 262.878906 10.757813 L 260.960938 12.757813 L 266.238281 12.757813 C 266.320313 12.757813 266.320313 12.757813 266.398438 12.839844 L 266.558594 13 C 266.558594 13.078125 266.640625 13.160156 266.640625 13.238281 C 266.398438 13 266.398438 13.078125 266.398438 13.160156 Z M 266.398438 13.160156 "/>
<path style=" stroke:none;fill-rule:nonzero;fill:rgb(0%,0%,0%);fill-opacity:1;" d="M 112.800781 78.4375 L 133.039063 35.160156 L 130.960938 34.199219 L 110.640625 77.398438 Z M 133.921875 42.839844 L 133.039063 32.597656 L 124.398438 38.4375 C 123.921875 38.839844 123.761719 39.558594 124.078125 40.199219 C 124.480469 40.679688 125.199219 40.839844 125.839844 40.519531 L 132.640625 35.71875 L 130.800781 34.839844 L 131.441406 43.160156 C 131.519531 43.800781 132.078125 44.277344 132.800781 44.199219 C 133.519531 44.121094 134 43.480469 133.921875 42.839844 Z M 133.921875 42.839844 "/>
</g>
</svg>
